# This file uses centimeters as units for non-parametric coordinates.

mtllib base.mtl
g default
v 12.138624 5.640275 -21.024701
v -12.138613 5.640275 -21.024704
v -24.277236 5.640275 -0.000004
v -12.138621 5.640275 21.024701
v 12.138616 5.640275 21.024704
v 24.277236 5.640275 0.000000
v 12.138624 8.042718 -21.024701
v -12.138613 8.042718 -21.024704
v -24.277236 8.042718 -0.000004
v -12.138621 8.042718 21.024702
v 12.138616 8.042718 21.024704
v 24.277236 8.042718 0.000000
v 0.000000 8.042718 0.000000
v 17.054766 5.640275 -29.539703
v -17.054760 5.640275 -29.539706
v 17.054766 2.933059 -29.539703
v -17.054760 2.933059 -29.539706
v -34.109518 5.640275 -0.000006
v -34.109518 2.933059 -0.000006
v -17.054760 5.640275 29.539706
v -17.054760 2.933059 29.539706
v 17.054755 5.640275 29.539706
v 17.054755 2.933059 29.539706
v 34.109512 5.640275 -0.000001
v 34.109512 2.933059 -0.000001
v 12.138619 0.251858 -21.024695
v -12.138610 0.251858 -21.024698
v 0.000000 0.251858 -0.000000
v -24.277227 0.251858 -0.000004
v -12.138617 0.251858 21.024697
v 12.138612 0.251858 21.024698
v 24.277224 0.251858 -0.000000
v -17.054755 0.251858 -29.539694
v 17.054760 0.251858 -29.539694
v -34.109509 0.251858 -0.000006
v -17.054755 0.251858 29.539694
v 17.054749 0.251858 29.539694
v 34.109501 0.251858 -0.000001
v 24.643755 2.933076 -47.456541
v -24.643744 2.933076 -47.456550
v 24.643744 0.251841 -47.456518
v -24.643735 0.251841 -47.456518
v -51.862071 2.933076 -0.000011
v -51.862060 0.251841 -0.000011
v -24.643744 2.933076 47.456550
v -24.643735 0.251841 47.456518
v 24.643735 2.933076 47.456550
v 24.643721 0.251841 47.456518
v 51.862060 2.933076 -0.000002
v 51.862048 0.251841 -0.000002
vt 0.578125 0.020934
vt 0.421875 0.020934
vt 0.343750 0.156250
vt 0.421875 0.291566
vt 0.578125 0.291566
vt 0.656250 0.156250
vt 0.375000 0.312500
vt 0.416667 0.312500
vt 0.458333 0.312500
vt 0.500000 0.312500
vt 0.541667 0.312500
vt 0.583333 0.312500
vt 0.625000 0.312500
vt 0.375000 0.688440
vt 0.416667 0.688440
vt 0.458333 0.688440
vt 0.500000 0.688440
vt 0.541667 0.688440
vt 0.583333 0.688440
vt 0.625000 0.688440
vt 0.578125 0.708434
vt 0.421875 0.708434
vt 0.343750 0.843750
vt 0.421875 0.979066
vt 0.578125 0.979066
vt 0.656250 0.843750
vt 0.500000 0.150000
vt 0.500000 0.837500
vt 0.421875 0.020934
vt 0.578125 0.020934
vt 0.343750 0.156250
vt 0.421875 0.291566
vt 0.578125 0.291566
vt 0.656250 0.156250
vt 0.421875 0.020934
vt 0.578125 0.020934
vt 0.578125 0.020934
vt 0.421875 0.020934
vt 0.343750 0.156250
vt 0.343750 0.156250
vt 0.421875 0.291566
vt 0.421875 0.291566
vt 0.578125 0.291566
vt 0.578125 0.291566
vt 0.656250 0.156250
vt 0.656250 0.156250
vt 0.421875 0.020934
vt 0.578125 0.020934
vt 0.343750 0.156250
vt 0.421875 0.291566
vt 0.578125 0.291566
vt 0.656250 0.156250
vt 0.421875 0.020934
vt 0.578125 0.020934
vt 0.578125 0.020934
vt 0.421875 0.020934
vt 0.343750 0.156250
vt 0.343750 0.156250
vt 0.421875 0.291566
vt 0.421875 0.291566
vt 0.578125 0.291566
vt 0.578125 0.291566
vt 0.656250 0.156250
vt 0.656250 0.156250
vn 0.000000 0.000000 -1.000000
vn 0.000000 0.000000 -1.000000
vn 0.000000 0.000000 -1.000000
vn 0.000000 0.000000 -1.000000
vn -0.866025 0.000000 -0.500000
vn -0.866025 0.000000 -0.500000
vn -0.866025 0.000000 -0.500000
vn -0.866025 0.000000 -0.500000
vn -0.866025 0.000000 0.500000
vn -0.866025 0.000000 0.500000
vn -0.866025 0.000000 0.500000
vn -0.866025 0.000000 0.500000
vn -0.000000 -0.000000 1.000000
vn -0.000000 -0.000000 1.000000
vn -0.000000 -0.000000 1.000000
vn -0.000000 -0.000000 1.000000
vn 0.866025 0.000000 0.500000
vn 0.866025 0.000000 0.500000
vn 0.866025 0.000000 0.500000
vn 0.866025 0.000000 0.500000
vn 0.866025 0.000000 -0.500000
vn 0.866025 0.000000 -0.500000
vn 0.866025 0.000000 -0.500000
vn 0.866025 0.000000 -0.500000
vn 0.000000 -1.000000 0.000000
vn -0.000000 -1.000000 0.000000
vn 0.000000 -1.000000 0.000000
vn 0.000000 -1.000000 0.000000
vn 0.000000 -1.000000 -0.000000
vn -0.000000 -1.000000 -0.000000
vn -0.000000 -1.000000 0.000000
vn 0.000000 1.000000 0.000000
vn 0.000000 1.000000 0.000000
vn 0.000000 1.000000 0.000000
vn 0.000000 1.000000 0.000000
vn 0.000000 1.000000 0.000000
vn 0.000000 1.000000 0.000000
vn 0.000000 1.000000 0.000000
vn 0.000000 0.000000 -1.000000
vn 0.000000 0.000000 -1.000000
vn 0.000000 0.000000 -1.000000
vn 0.000000 0.000000 -1.000000
vn -0.866025 0.000000 -0.500000
vn -0.866025 0.000000 -0.500000
vn -0.866025 0.000000 -0.500000
vn -0.866025 0.000000 -0.500000
vn -0.866025 0.000000 0.500000
vn -0.866025 0.000000 0.500000
vn -0.866025 0.000000 0.500000
vn -0.866025 0.000000 0.500000
vn 0.000000 0.000000 1.000000
vn 0.000000 0.000000 1.000000
vn 0.000000 0.000000 1.000000
vn 0.000000 0.000000 1.000000
vn 0.866025 0.000000 0.500000
vn 0.866025 0.000000 0.500000
vn 0.866025 0.000000 0.500000
vn 0.866025 0.000000 0.500000
vn 0.866026 0.000000 -0.500000
vn 0.866026 0.000000 -0.500000
vn 0.866026 0.000000 -0.500000
vn 0.866026 0.000000 -0.500000
vn -0.000000 1.000000 -0.000000
vn 0.000000 1.000000 -0.000000
vn 0.000000 1.000000 -0.000000
vn -0.000000 1.000000 -0.000000
vn 0.000000 -1.000000 0.000000
vn -0.000000 -1.000000 0.000000
vn -0.000000 1.000000 0.000000
vn -0.000000 1.000000 0.000000
vn 0.000000 -1.000000 0.000000
vn -0.000000 1.000000 0.000000
vn -0.000000 1.000000 0.000000
vn 0.000000 -1.000000 -0.000000
vn 0.000000 1.000000 0.000000
vn 0.000000 1.000000 0.000000
vn -0.000000 -1.000000 -0.000000
vn 0.000000 1.000000 0.000000
vn 0.000000 1.000000 0.000000
vn -0.000000 -1.000000 0.000000
vn 0.000000 -0.000010 -1.000000
vn 0.000000 -0.000010 -1.000000
vn 0.000000 -0.000010 -1.000000
vn 0.000000 -0.000010 -1.000000
vn -0.867452 -0.000006 -0.497521
vn -0.867452 -0.000006 -0.497521
vn -0.867452 -0.000006 -0.497521
vn -0.867452 -0.000006 -0.497521
vn -0.867452 -0.000006 0.497520
vn -0.867452 -0.000006 0.497520
vn -0.867452 -0.000006 0.497520
vn -0.867452 -0.000006 0.497520
vn 0.000000 -0.000012 1.000000
vn 0.000000 -0.000012 1.000000
vn 0.000000 -0.000012 1.000000
vn 0.000000 -0.000012 1.000000
vn 0.867452 -0.000008 0.497520
vn 0.867452 -0.000008 0.497520
vn 0.867452 -0.000008 0.497520
vn 0.867452 -0.000008 0.497520
vn 0.867452 -0.000006 -0.497520
vn 0.867452 -0.000006 -0.497520
vn 0.867452 -0.000006 -0.497520
vn 0.867452 -0.000006 -0.497520
vn -0.000000 1.000000 0.000001
vn -0.000000 1.000000 0.000001
vn -0.000000 1.000000 0.000001
vn -0.000000 1.000000 0.000001
vn 0.000000 -1.000000 0.000001
vn 0.000000 -1.000000 0.000001
vn 0.000000 -1.000000 0.000001
vn 0.000000 -1.000000 0.000001
vn 0.000001 1.000000 0.000001
vn 0.000001 1.000000 0.000001
vn 0.000001 1.000000 0.000001
vn 0.000001 1.000000 0.000001
vn 0.000001 -1.000000 0.000001
vn 0.000001 -1.000000 0.000001
vn 0.000001 -1.000000 0.000001
vn 0.000001 -1.000000 0.000001
vn 0.000001 1.000000 -0.000001
vn 0.000001 1.000000 -0.000001
vn 0.000001 1.000000 -0.000001
vn 0.000001 1.000000 -0.000001
vn 0.000001 -1.000000 -0.000001
vn 0.000001 -1.000000 -0.000001
vn 0.000001 -1.000000 -0.000001
vn 0.000001 -1.000000 -0.000001
vn 0.000000 1.000000 -0.000001
vn 0.000000 1.000000 -0.000001
vn 0.000000 1.000000 -0.000001
vn 0.000000 1.000000 -0.000001
vn 0.000000 -1.000000 -0.000001
vn 0.000000 -1.000000 -0.000001
vn 0.000000 -1.000000 -0.000001
vn 0.000000 -1.000000 -0.000001
vn -0.000001 1.000000 -0.000001
vn -0.000001 1.000000 -0.000001
vn -0.000001 1.000000 -0.000001
vn -0.000001 1.000000 -0.000001
vn -0.000001 -1.000000 -0.000001
vn -0.000001 -1.000000 -0.000001
vn -0.000001 -1.000000 -0.000001
vn -0.000001 -1.000000 -0.000001
vn -0.000001 1.000000 0.000001
vn -0.000001 1.000000 0.000001
vn -0.000001 1.000000 0.000001
vn -0.000001 1.000000 0.000001
vn -0.000001 -1.000000 0.000001
vn -0.000001 -1.000000 0.000001
vn -0.000001 -1.000000 0.000001
vn -0.000001 -1.000000 0.000001
s off
g pasted__base group1
usemtl initialShadingGroup
f 1/7/1 2/8/2 8/15/3 7/14/4
f 2/8/5 3/9/6 9/16/7 8/15/8
f 3/9/9 4/10/10 10/17/11 9/16/12
f 4/10/13 5/11/14 11/18/15 10/17/16
f 5/11/17 6/12/18 12/19/19 11/18/20
f 6/12/21 1/13/22 7/20/23 12/19/24
s 1
f 27/29/25 26/30/26 28/27/27
f 29/31/28 27/29/25 28/27/27
f 30/32/29 29/31/28 28/27/27
f 31/33/30 30/32/29 28/27/27
f 32/34/31 31/33/30 28/27/27
f 26/30/26 32/34/31 28/27/27
s 2
f 7/25/32 8/24/33 13/28/34
f 8/24/33 9/23/35 13/28/34
f 9/23/35 10/22/36 13/28/34
f 10/22/36 11/21/37 13/28/34
f 11/21/37 12/26/38 13/28/34
f 12/26/38 7/25/32 13/28/34
s off
f 15/35/39 14/36/40 16/37/41 17/38/42
f 18/39/43 15/35/44 17/38/45 19/40/46
f 20/41/47 18/39/48 19/40/49 21/42/50
f 22/43/51 20/41/52 21/42/53 23/44/54
f 24/45/55 22/43/56 23/44/57 25/46/58
f 14/36/59 24/45/60 25/46/61 16/37/62
s 3
f 2/2/63 1/1/64 14/36/65 15/35/66
s 1
f 26/30/26 27/29/25 33/47/67 34/48/68
s 3
f 3/3/69 2/2/63 15/35/66 18/39/70
s 1
f 27/29/25 29/31/28 35/49/71 33/47/67
s 3
f 4/4/72 3/3/69 18/39/70 20/41/73
s 1
f 29/31/28 30/32/29 36/50/74 35/49/71
s 3
f 5/5/75 4/4/72 20/41/73 22/43/76
s 1
f 30/32/29 31/33/30 37/51/77 36/50/74
s 3
f 6/6/78 5/5/75 22/43/76 24/45/79
s 1
f 31/33/30 32/34/31 38/52/80 37/51/77
s 3
f 1/1/64 6/6/78 24/45/79 14/36/65
s 1
f 32/34/31 26/30/26 34/48/68 38/52/80
s off
f 40/53/81 39/54/82 41/55/83 42/56/84
f 43/57/85 40/53/86 42/56/87 44/58/88
f 45/59/89 43/57/90 44/58/91 46/60/92
f 47/61/93 45/59/94 46/60/95 48/62/96
f 49/63/97 47/61/98 48/62/99 50/64/100
f 39/54/101 49/63/102 50/64/103 41/55/104
f 17/38/105 16/37/106 39/54/107 40/53/108
f 34/48/109 33/47/110 42/56/111 41/55/112
f 19/40/113 17/38/114 40/53/115 43/57/116
f 33/47/117 35/49/118 44/58/119 42/56/120
f 21/42/121 19/40/122 43/57/123 45/59/124
f 35/49/125 36/50/126 46/60/127 44/58/128
f 23/44/129 21/42/130 45/59/131 47/61/132
f 36/50/133 37/51/134 48/62/135 46/60/136
f 25/46/137 23/44/138 47/61/139 49/63/140
f 37/51/141 38/52/142 50/64/143 48/62/144
f 16/37/145 25/46/146 49/63/147 39/54/148
f 38/52/149 34/48/150 41/55/151 50/64/152
