# This file uses centimeters as units for non-parametric coordinates.

mtllib flag_blue.mtl
g default
v -2.647873 11.146514 0.098303
v 2.647873 11.146514 0.098303
v -2.647873 23.634023 0.098303
v 2.647873 23.634023 0.098303
v -2.647873 23.760655 -0.098303
v 2.647873 23.760655 -0.098303
v -2.647873 11.146514 -0.098303
v 2.647873 11.146514 -0.098303
v 0.000000 23.634023 0.098303
v 0.000000 8.642932 0.098303
v 0.000000 8.642932 -0.098303
v 0.000000 23.760658 -0.098303
v -2.647873 22.659944 0.098303
v -2.647873 22.659944 -0.098303
v 0.000000 22.663626 -0.098303
v 2.647873 22.659944 -0.098303
v 2.647873 22.659944 0.098303
v 0.000000 22.663624 0.098303
v -2.647873 23.486126 -0.565061
v 0.000000 23.486129 -0.565061
v 0.000000 22.907849 -0.565061
v -2.647873 22.904167 -0.565061
v 2.647873 22.904167 -0.565061
v 2.647873 23.486126 -0.565061
v -3.021475 23.686405 -0.098303
v -3.021475 22.813087 -0.098303
v -3.231741 23.486126 -0.565061
v -3.231741 22.904167 -0.565061
v 3.021475 23.686405 -0.098303
v 3.021475 22.813087 -0.098303
v 3.231741 22.904167 -0.565061
v 3.231741 23.486126 -0.565061
vt 0.375000 0.000000
vt 0.625000 0.000000
vt 0.375000 0.250000
vt 0.625000 0.250000
vt 0.375000 0.500000
vt 0.625000 0.500000
vt 0.375000 0.750000
vt 0.625000 0.750000
vt 0.375000 1.000000
vt 0.625000 1.000000
vt 0.875000 0.000000
vt 0.875000 0.250000
vt 0.125000 0.000000
vt 0.125000 0.250000
vt 0.500000 0.250000
vt 0.500000 0.000000
vt 0.500000 1.000000
vt 0.500000 0.750000
vt 0.500000 0.500000
vt 0.375000 0.230499
vt 0.125000 0.230499
vt 0.375000 0.519501
vt 0.500000 0.519501
vt 0.625000 0.519501
vt 0.875000 0.230499
vt 0.625000 0.230499
vt 0.500000 0.230499
vt 0.375000 0.500000
vt 0.500000 0.500000
vt 0.500000 0.519501
vt 0.375000 0.519501
vt 0.625000 0.519501
vt 0.625000 0.500000
vt 0.375000 0.519501
vt 0.375000 0.500000
vt 0.375000 0.500000
vt 0.375000 0.519501
vt 0.625000 0.500000
vt 0.625000 0.519501
vt 0.625000 0.519501
vt 0.625000 0.500000
vn 0.000000 0.000000 1.000000
vn 0.000000 0.000000 1.000000
vn 0.000000 0.000000 1.000000
vn 0.000000 0.000000 1.000000
vn 0.000000 0.976037 -0.217605
vn 0.000000 0.840704 0.541495
vn 0.000000 0.840704 0.541495
vn 0.008475 0.969378 -0.245428
vn 0.000000 0.000000 -1.000000
vn 0.000000 0.000000 -1.000000
vn 0.000000 0.000000 -1.000000
vn 0.000000 0.000000 -1.000000
vn -0.687031 -0.726628 0.000000
vn 0.000000 -1.000000 0.000000
vn 0.000000 -1.000000 0.000000
vn -0.687031 -0.726628 0.000000
vn 1.000000 0.000000 0.000000
vn 1.000000 0.000000 0.000000
vn 1.000000 0.000000 0.000000
vn 1.000000 0.000000 0.000000
vn -1.000000 0.000000 0.000000
vn -1.000000 0.000000 0.000000
vn -1.000000 0.000000 0.000000
vn -1.000000 0.000000 0.000000
vn 0.000000 0.000000 1.000000
vn 0.000000 0.000000 1.000000
vn 0.000000 0.000000 -1.000000
vn 0.000000 0.000000 -1.000000
vn -0.000000 0.840704 0.541495
vn -0.008475 0.969378 -0.245428
vn -1.000000 0.000000 0.000000
vn -1.000000 0.000000 0.000000
vn 0.000000 0.000000 -1.000000
vn 0.000000 0.000000 -1.000000
vn 0.000000 0.000000 -1.000000
vn 0.000000 0.000000 -1.000000
vn 0.000000 0.000000 -1.000000
vn 0.000000 0.000000 -1.000000
vn 1.000000 0.000000 0.000000
vn 1.000000 0.000000 0.000000
vn 0.000000 0.000000 1.000000
vn 0.000000 0.000000 1.000000
vn 0.000000 0.000000 1.000000
vn 0.000000 0.861962 -0.506973
vn -0.010301 0.867494 -0.497341
vn 0.000000 -0.886041 -0.463607
vn -0.020864 -0.896851 -0.441841
vn -0.020908 -0.896871 -0.441798
vn 0.000000 -0.886041 -0.463607
vn -0.911757 0.000000 0.410731
vn -0.911757 0.000000 0.410731
vn -0.911757 0.000000 0.410731
vn -0.911757 0.000000 0.410731
vn 0.020864 -0.896851 -0.441841
vn 0.020908 -0.896871 -0.441798
vn 0.010301 0.867494 -0.497341
vn 0.911757 0.000000 0.410731
vn 0.911757 0.000000 0.410731
vn 0.911757 0.000000 0.410731
vn 0.911757 0.000000 0.410731
vn -0.000000 0.000000 1.000000
vn -0.000000 0.000000 1.000000
vn -0.000000 0.000000 1.000000
vn -0.000000 0.000000 1.000000
vn -0.069438 0.895413 -0.439787
vn -0.069438 0.895414 -0.439787
vn 0.000000 0.000000 -1.000000
vn 0.000000 0.000000 -1.000000
vn -0.150463 -0.940715 -0.303999
vn -0.150463 -0.940715 -0.303999
vn 0.000000 0.000000 1.000000
vn 0.000000 0.000000 1.000000
vn 0.000000 0.000000 1.000000
vn 0.000000 0.000000 1.000000
vn 0.150463 -0.940715 -0.303999
vn 0.150463 -0.940715 -0.303999
vn 0.000000 0.000000 -1.000000
vn 0.000000 0.000000 -1.000000
vn 0.069438 0.895414 -0.439787
vn 0.069438 0.895414 -0.439787
vn 0.687031 -0.726628 0.000000
vn 0.687031 -0.726628 0.000000
s 1
g pasted__flag_blue group
usemtl initialShadingGroup
f 18/27/1 10/16/2 2/2/3 17/26/4
s 2
f 12/19/5 9/15/6 4/4/7 6/6/8
s 3
f 11/18/9 15/23/10 16/24/11 8/8/12
s 4
f 7/7/13 11/18/14 10/17/15 1/9/16
s 5
f 2/2/17 8/11/18 16/25/19 17/26/20
s 6
f 7/13/21 1/1/22 13/20/23 14/21/24
s 1
f 1/1/25 10/16/2 18/27/1 13/20/26
s 3
f 14/22/27 15/23/10 11/18/9 7/7/28
s 2
f 3/3/29 9/15/6 12/19/5 5/5/30
s 6
f 14/21/24 13/20/23 3/3/31 5/14/32
s 7
f 19/28/33 20/29/34 21/30/35 22/31/36
f 23/32/37 21/30/35 20/29/34 24/33/38
s 5
f 17/26/20 16/25/19 6/12/39 4/4/40
s 1
f 9/15/41 18/27/1 17/26/4 4/4/42
f 13/20/26 18/27/1 9/15/41 3/3/43
s 2
f 5/5/30 12/19/5 20/29/44 19/28/45
s 8
f 15/23/46 14/22/47 22/31/48 21/30/49
s off
f 26/34/50 25/35/51 27/36/52 28/37/53
s 8
f 16/24/54 15/23/46 21/30/49 23/32/55
s 2
f 12/19/5 6/6/8 24/33/56 20/29/44
s off
f 29/38/57 30/39/58 31/40/59 32/41/60
f 14/22/61 5/5/62 25/35/63 26/34/64
s 2
f 5/5/30 19/28/45 27/36/65 25/35/66
s 7
f 19/28/33 22/31/36 28/37/67 27/36/68
s 8
f 22/31/48 14/22/47 26/34/69 28/37/70
s off
f 6/6/71 16/24/72 30/39/73 29/38/74
s 8
f 16/24/54 23/32/55 31/40/75 30/39/76
s 7
f 23/32/37 24/33/38 32/41/77 31/40/78
s 2
f 24/33/56 6/6/8 29/38/79 32/41/80
s 4
f 10/17/15 11/18/14 8/8/81 2/10/82
