# This file uses centimeters as units for non-parametric coordinates.

mtllib pole.mtl
g default
v 2.024934 0.046848 -1.699121
v 0.459016 0.046848 -2.603204
v -1.321681 0.046848 -2.289220
v -2.483949 0.046848 -0.904084
v -2.483948 0.046848 0.904083
v -1.321681 0.046848 2.289219
v 0.459015 0.046848 2.603204
v 2.024933 0.046848 1.699121
v 2.643363 0.046848 0.000000
v 2.024934 34.553578 -1.699121
v 0.459016 34.553578 -2.603204
v -1.321681 34.553578 -2.289220
v -2.483948 34.553578 -0.904084
v -2.483948 34.553578 0.904083
v -1.321681 34.553578 2.289219
v 0.459015 34.553578 2.603204
v 2.024933 34.553578 1.699121
v 2.643363 34.553578 0.000000
v 0.000000 0.046848 0.000000
v 0.000000 34.553578 0.000000
v -2.483948 3.593152 0.904083
v -2.483949 3.593152 -0.904084
v -1.321681 3.593152 -2.289220
v 0.459016 3.593152 -2.603204
v 2.024934 3.593152 -1.699121
v 2.643363 3.593152 0.000000
v 2.024933 3.593152 1.699121
v 0.459015 3.593152 2.603204
v -1.321681 3.593152 2.289219
v 2.351971 0.046842 -2.106480
v 0.410629 0.046842 -3.227315
v 0.410629 3.593154 -3.227315
v 2.351971 3.593154 -2.106480
v -1.480116 0.046842 -2.838053
v -1.480116 3.593154 -2.838053
v -2.921033 0.046842 -1.120835
v -2.921033 3.593154 -1.120835
v -2.921033 0.046842 1.120834
v -2.921033 3.593154 1.120834
v -1.480116 0.046842 2.838052
v -1.480116 3.593154 2.838052
v 0.410628 0.046842 3.227314
v 0.410628 3.593154 3.227314
v 2.351970 0.046842 2.106480
v 2.351970 3.593154 2.106480
v 3.118666 0.046842 0.000000
v 3.118666 3.593154 0.000000
vt 0.619694 0.055814
vt 0.527133 0.002374
vt 0.421875 0.020934
vt 0.353173 0.102809
vt 0.353173 0.209691
vt 0.421875 0.291566
vt 0.527133 0.310126
vt 0.619694 0.256686
vt 0.656250 0.156250
vt 0.375000 0.312500
vt 0.402778 0.312500
vt 0.430556 0.312500
vt 0.458333 0.312500
vt 0.486111 0.312500
vt 0.513889 0.312500
vt 0.541667 0.312500
vt 0.569445 0.312500
vt 0.597222 0.312500
vt 0.625000 0.312500
vt 0.375000 0.688440
vt 0.402778 0.688440
vt 0.430556 0.688440
vt 0.458333 0.688440
vt 0.486111 0.688440
vt 0.513889 0.688440
vt 0.541667 0.688440
vt 0.569445 0.688440
vt 0.597222 0.688440
vt 0.625000 0.688440
vt 0.619694 0.743314
vt 0.527133 0.689874
vt 0.421875 0.708434
vt 0.353173 0.790309
vt 0.353173 0.897191
vt 0.421875 0.979066
vt 0.527133 0.997626
vt 0.619694 0.944186
vt 0.656250 0.843750
vt 0.500000 0.150000
vt 0.500000 0.837500
vt 0.486111 0.347191
vt 0.458333 0.347191
vt 0.430556 0.347191
vt 0.402778 0.347191
vt 0.625000 0.347191
vt 0.375000 0.347191
vt 0.597222 0.347191
vt 0.569445 0.347191
vt 0.541667 0.347191
vt 0.513889 0.347191
vt 0.375000 0.312500
vt 0.402778 0.312500
vt 0.402778 0.347191
vt 0.375000 0.347191
vt 0.430556 0.312500
vt 0.430556 0.347191
vt 0.458333 0.312500
vt 0.458333 0.347191
vt 0.486111 0.312500
vt 0.486111 0.347191
vt 0.513889 0.312500
vt 0.513889 0.347191
vt 0.541667 0.312500
vt 0.541667 0.347191
vt 0.569445 0.312500
vt 0.569445 0.347191
vt 0.597222 0.312500
vt 0.597222 0.347191
vt 0.625000 0.312500
vt 0.625000 0.347191
vn 0.500000 0.000000 -0.866025
vn 0.500000 0.000000 -0.866025
vn 0.500000 0.000000 -0.866025
vn 0.500000 0.000000 -0.866025
vn -0.201649 0.000000 -0.979458
vn -0.201649 0.000000 -0.979458
vn -0.201649 0.000000 -0.979458
vn -0.201649 0.000000 -0.979458
vn -0.766044 0.000000 -0.642788
vn -0.766044 0.000000 -0.642788
vn -0.766044 0.000000 -0.642788
vn -0.766044 0.000000 -0.642788
vn -1.000000 0.000000 0.000000
vn -1.000000 0.000000 0.000000
vn -1.000000 0.000000 0.000000
vn -1.000000 0.000000 0.000000
vn -0.766044 0.000000 0.642788
vn -0.766044 0.000000 0.642788
vn -0.766044 0.000000 0.642788
vn -0.766044 0.000000 0.642788
vn -0.201648 0.000000 0.979458
vn -0.201648 0.000000 0.979458
vn -0.201648 0.000000 0.979458
vn -0.201648 0.000000 0.979458
vn 0.500000 0.000000 0.866025
vn 0.500000 0.000000 0.866025
vn 0.500000 0.000000 0.866025
vn 0.500000 0.000000 0.866025
vn 0.939693 0.000000 0.342020
vn 0.939693 0.000000 0.342020
vn 0.939693 0.000000 0.342020
vn 0.939693 0.000000 0.342020
vn 0.939693 0.000000 -0.342020
vn 0.939693 0.000000 -0.342020
vn 0.939693 0.000000 -0.342020
vn 0.939693 0.000000 -0.342020
vn 0.000000 -1.000000 -0.000001
vn 0.000000 -1.000000 0.000001
vn 0.000000 -1.000000 0.000000
vn 0.000000 -1.000000 0.000000
vn 0.000000 -1.000000 0.000000
vn 0.000000 -1.000000 0.000000
vn 0.000000 -1.000000 -0.000000
vn 0.000000 -1.000000 -0.000000
vn 0.000000 -1.000000 0.000000
vn 0.000000 -1.000000 0.000002
vn 0.000000 1.000000 0.000000
vn 0.000000 1.000000 0.000000
vn 0.000000 1.000000 0.000000
vn 0.000000 1.000000 0.000000
vn 0.000000 1.000000 -0.000000
vn 0.000000 1.000000 0.000000
vn 0.000000 1.000000 0.000000
vn 0.000000 1.000000 0.000000
vn 0.000000 1.000000 0.000000
vn 0.000000 1.000000 0.000000
vn -1.000000 0.000000 0.000000
vn -1.000000 0.000000 0.000000
vn -1.000000 0.000000 0.000000
vn -1.000000 0.000000 0.000000
vn -0.766044 0.000000 -0.642788
vn -0.766044 0.000000 -0.642788
vn -0.766044 0.000000 -0.642788
vn -0.766044 0.000000 -0.642788
vn -0.173648 0.000000 -0.984808
vn -0.173648 0.000000 -0.984808
vn -0.173648 0.000000 -0.984808
vn -0.173648 0.000000 -0.984808
vn 0.500000 0.000000 -0.866025
vn 0.500000 0.000000 -0.866025
vn 0.500000 0.000000 -0.866025
vn 0.500000 0.000000 -0.866025
vn 0.939693 -0.000000 -0.342020
vn 0.939693 -0.000000 -0.342020
vn 0.939693 -0.000000 -0.342020
vn 0.939693 -0.000000 -0.342020
vn 0.939693 0.000000 0.342020
vn 0.939693 0.000000 0.342020
vn 0.939693 0.000000 0.342020
vn 0.939693 0.000000 0.342020
vn 0.500000 -0.000000 0.866025
vn 0.500000 -0.000000 0.866025
vn 0.500000 -0.000000 0.866025
vn 0.500000 -0.000000 0.866025
vn -0.173648 -0.000000 0.984808
vn -0.173648 -0.000000 0.984808
vn -0.173648 -0.000000 0.984808
vn -0.173648 -0.000000 0.984808
vn -0.766044 0.000000 0.642788
vn -0.766044 0.000000 0.642788
vn -0.766044 0.000000 0.642788
vn -0.766044 0.000000 0.642788
vn -0.000005 -1.000000 0.000007
vn -0.000005 -1.000000 0.000007
vn -0.000005 -1.000000 0.000007
vn -0.000005 -1.000000 0.000007
vn -0.000003 1.000000 0.000000
vn -0.000003 1.000000 0.000000
vn -0.000003 1.000000 0.000000
vn -0.000003 1.000000 0.000000
vn 0.000002 -1.000000 0.000010
vn 0.000002 -1.000000 0.000010
vn 0.000002 -1.000000 0.000010
vn 0.000002 -1.000000 0.000010
vn 0.000001 1.000000 0.000005
vn 0.000001 1.000000 0.000005
vn 0.000001 1.000000 0.000005
vn 0.000001 1.000000 0.000005
vn 0.000009 -1.000000 0.000010
vn 0.000009 -1.000000 0.000010
vn 0.000009 -1.000000 0.000010
vn 0.000009 -1.000000 0.000010
vn 0.000004 1.000000 0.000006
vn 0.000004 1.000000 0.000006
vn 0.000004 1.000000 0.000006
vn 0.000004 1.000000 0.000006
vn 0.000013 -1.000000 0.000000
vn 0.000013 -1.000000 0.000000
vn 0.000013 -1.000000 0.000000
vn 0.000013 -1.000000 0.000000
vn 0.000006 1.000000 0.000000
vn 0.000006 1.000000 0.000000
vn 0.000006 1.000000 0.000000
vn 0.000006 1.000000 0.000000
vn 0.000009 -1.000000 -0.000009
vn 0.000009 -1.000000 -0.000009
vn 0.000009 -1.000000 -0.000009
vn 0.000009 -1.000000 -0.000009
vn 0.000004 1.000000 -0.000001
vn 0.000004 1.000000 -0.000001
vn 0.000004 1.000000 -0.000001
vn 0.000004 1.000000 -0.000001
vn 0.000002 -1.000000 -0.000011
vn 0.000002 -1.000000 -0.000011
vn 0.000002 -1.000000 -0.000011
vn 0.000002 -1.000000 -0.000011
vn 0.000001 1.000000 -0.000008
vn 0.000001 1.000000 -0.000008
vn 0.000001 1.000000 -0.000008
vn 0.000001 1.000000 -0.000008
vn -0.000005 -1.000000 -0.000011
vn -0.000005 -1.000000 -0.000011
vn -0.000005 -1.000000 -0.000011
vn -0.000005 -1.000000 -0.000011
vn -0.000003 1.000000 -0.000003
vn -0.000003 1.000000 -0.000003
vn -0.000003 1.000000 -0.000003
vn -0.000003 1.000000 -0.000003
vn -0.000012 -1.000000 -0.000003
vn -0.000012 -1.000000 -0.000003
vn -0.000012 -1.000000 -0.000003
vn -0.000012 -1.000000 -0.000003
vn -0.000006 1.000000 -0.000001
vn -0.000006 1.000000 -0.000001
vn -0.000006 1.000000 -0.000001
vn -0.000006 1.000000 -0.000001
vn -0.000012 -1.000000 0.000003
vn -0.000012 -1.000000 0.000003
vn -0.000012 -1.000000 0.000003
vn -0.000012 -1.000000 0.000003
vn -0.000006 1.000000 0.000003
vn -0.000006 1.000000 0.000003
vn -0.000006 1.000000 0.000003
vn -0.000006 1.000000 0.000003
s off
g pasted__pole1 group
usemtl initialShadingGroup
f 30/51/1 31/52/2 32/53/3 33/54/4
f 31/52/5 34/55/6 35/56/7 32/53/8
f 34/55/9 36/57/10 37/58/11 35/56/12
f 36/57/13 38/59/14 39/60/15 37/58/16
f 38/59/17 40/61/18 41/62/19 39/60/20
f 40/61/21 42/63/22 43/64/23 41/62/24
f 42/63/25 44/65/26 45/66/27 43/64/28
f 44/65/29 46/67/30 47/68/31 45/66/32
f 46/67/33 30/69/34 33/70/35 47/68/36
s 1
f 2/2/37 1/1/38 19/39/39
f 3/3/40 2/2/37 19/39/39
f 4/4/41 3/3/40 19/39/39
f 5/5/42 4/4/41 19/39/39
f 6/6/43 5/5/42 19/39/39
f 7/7/44 6/6/43 19/39/39
f 8/8/45 7/7/44 19/39/39
f 9/9/46 8/8/45 19/39/39
f 1/1/38 9/9/46 19/39/39
s 2
f 10/37/47 11/36/48 20/40/49
f 11/36/48 12/35/50 20/40/49
f 12/35/50 13/34/51 20/40/49
f 13/34/51 14/33/52 20/40/49
f 14/33/52 15/32/53 20/40/49
f 15/32/53 16/31/54 20/40/49
f 16/31/54 17/30/55 20/40/49
f 17/30/55 18/38/56 20/40/49
f 18/38/56 10/37/47 20/40/49
s off
f 22/42/57 21/41/58 14/24/59 13/23/60
f 23/43/61 22/42/62 13/23/63 12/22/64
f 24/44/65 23/43/66 12/22/67 11/21/68
f 25/46/69 24/44/70 11/21/71 10/20/72
f 26/47/73 25/45/74 10/29/75 18/28/76
f 27/48/77 26/47/78 18/28/79 17/27/80
f 28/49/81 27/48/82 17/27/83 16/26/84
f 29/50/85 28/49/86 16/26/87 15/25/88
f 21/41/89 29/50/90 15/25/91 14/24/92
f 1/10/93 2/11/94 31/52/95 30/51/96
f 24/44/97 25/46/98 33/54/99 32/53/100
f 2/11/101 3/12/102 34/55/103 31/52/104
f 23/43/105 24/44/106 32/53/107 35/56/108
f 3/12/109 4/13/110 36/57/111 34/55/112
f 22/42/113 23/43/114 35/56/115 37/58/116
f 4/13/117 5/14/118 38/59/119 36/57/120
f 21/41/121 22/42/122 37/58/123 39/60/124
f 5/14/125 6/15/126 40/61/127 38/59/128
f 29/50/129 21/41/130 39/60/131 41/62/132
f 6/15/133 7/16/134 42/63/135 40/61/136
f 28/49/137 29/50/138 41/62/139 43/64/140
f 7/16/141 8/17/142 44/65/143 42/63/144
f 27/48/145 28/49/146 43/64/147 45/66/148
f 8/17/149 9/18/150 46/67/151 44/65/152
f 26/47/153 27/48/154 45/66/155 47/68/156
f 9/18/157 1/19/158 30/69/159 46/67/160
f 25/45/161 26/47/162 47/68/163 33/70/164
