# This file uses centimeters as units for non-parametric coordinates.

g default
v -0.223595 0.250359 0.019660
v 0.223602 0.250359 0.019660
v -0.223595 1.867781 0.019660
v 0.223602 1.867781 0.019660
v -0.223595 1.880444 0.000000
v 0.223602 1.880444 0.000000
v -0.223595 0.250359 0.000000
v 0.223602 0.250359 0.000000
v 0.000000 1.867781 0.019660
v 0.000000 0.000000 0.019660
v 0.000000 0.000000 0.000000
v 0.000000 1.880445 0.000000
v -0.223595 1.770374 0.019660
v -0.223595 1.770374 0.000000
v 0.000000 1.770742 0.000000
v 0.223602 1.770374 0.000000
v 0.223602 1.770374 0.019660
v 0.000000 1.770742 0.019660
v -0.223595 1.852991 -0.046676
v 0.000000 1.852991 -0.046676
v 0.000000 1.795164 -0.046676
v -0.223595 1.794796 -0.046676
v 0.223602 1.794796 -0.046676
v 0.223602 1.852991 -0.046676
v -0.255150 1.873020 0.000000
v -0.255150 1.785688 0.000000
v -0.272903 1.852991 -0.046676
v -0.272903 1.794796 -0.046676
v 0.255150 1.873020 0.000000
v 0.255150 1.785688 0.000000
v 0.272903 1.794796 -0.046676
v 0.272903 1.852991 -0.046676
vt 0.836679 0.647963
vt 0.852321 0.664507
vt 0.854003 0.923901
vt 0.879368 0.607601
vt 0.895010 0.624145
vt 0.843111 0.933206
vt 0.843448 0.924745
vt 0.953341 0.647963
vt 0.741343 0.930549
vt 0.910652 0.607601
vt 0.752596 0.924625
vt 0.752553 0.933210
vt 0.742135 0.933677
vt 0.749040 0.934646
vt 0.743236 0.954714
vt 0.960927 0.953030
vt 0.846470 0.934642
vt 0.856867 0.934489
vt 0.855567 0.954802
vt 0.847446 0.954710
vt 0.797754 0.934640
vt 0.797754 0.925280
vt 0.838034 0.954711
vt 0.795343 0.954712
vt 0.752651 0.954714
vt 0.910344 0.933603
vt 0.951410 0.953190
vt 0.908248 0.953946
vt 0.867181 0.934298
vt 0.865083 0.954642
vt 0.797754 0.909635
vt 0.797754 0.624142
vt 0.840445 0.664507
vt 0.840445 0.909575
vt 0.755063 0.909575
vt 0.951569 0.962669
vt 0.908406 0.963395
vt 0.865243 0.964121
vt 0.961087 0.962509
vt 0.855725 0.964281
vt 0.959598 0.932760
vt 0.738632 0.954073
vt 0.854311 0.931424
vt 0.742429 0.922879
vt 0.937699 0.909575
vt 0.937698 0.664507
vt 0.755063 0.664507
vt 0.740104 0.909575
vt 0.740105 0.664507
vt 0.852322 0.909575
vt 0.953506 0.932847
vt 0.895010 0.909605
vn 0.000000 0.000000 1.000000
vn 0.000000 0.000000 1.000000
vn 0.000000 0.000000 1.000000
vn 0.000000 0.000000 1.000000
vn 0.000000 0.976037 -0.217606
vn 0.000000 0.840693 0.541512
vn 0.000004 0.840695 0.541509
vn 0.009387 0.969823 -0.243631
vn 0.000000 0.000000 -1.000000
vn 0.000000 0.000000 -1.000000
vn 0.000000 0.000000 -1.000000
vn 0.000000 0.000000 -1.000000
vn -0.745849 -0.666116 0.000000
vn -0.000000 -1.000000 0.000000
vn -0.000000 -1.000000 0.000000
vn -0.745849 -0.666116 0.000000
vn 0.000000 0.000000 1.000000
vn 0.000000 0.000000 1.000000
vn 0.000000 0.000000 -1.000000
vn 0.000000 0.000000 -1.000000
vn -0.000004 0.840692 0.541514
vn -0.009387 0.969821 -0.243636
vn -1.000000 0.000000 0.000000
vn -1.000000 0.000000 0.000000
vn -1.000000 0.000000 0.000000
vn -1.000000 0.000000 0.000000
vn 0.000000 0.000000 -1.000000
vn 0.000000 0.000000 -1.000000
vn 0.000000 0.000000 -1.000000
vn 0.000000 0.000000 -1.000000
vn 0.000000 0.000000 -1.000000
vn 0.000000 0.000000 -1.000000
vn 1.000000 0.000000 0.000000
vn 1.000000 0.000000 0.000000
vn 1.000000 0.000000 0.000000
vn 1.000000 0.000000 0.000000
vn 0.000000 0.000000 1.000000
vn 0.000000 0.000000 1.000000
vn 0.000000 0.000000 1.000000
vn 0.000000 0.861958 -0.506980
vn -0.012198 0.867471 -0.497339
vn 0.000000 -0.886046 -0.463597
vn -0.021798 -0.895641 -0.444244
vn -0.024747 -0.896793 -0.441757
vn 0.000000 -0.886046 -0.463597
vn -0.934671 0.000000 0.355513
vn -0.934671 0.000000 0.355513
vn -0.934671 0.000000 0.355513
vn -0.934671 0.000000 0.355513
vn 0.021797 -0.895639 -0.444247
vn 0.024747 -0.896792 -0.441760
vn 0.012198 0.867471 -0.497338
vn 0.934671 0.000000 0.355513
vn 0.934671 0.000000 0.355513
vn 0.934671 0.000000 0.355513
vn 0.934671 0.000000 0.355513
vn 0.000000 0.000000 1.000000
vn 0.000000 0.000000 1.000000
vn 0.000000 0.000000 1.000000
vn 0.000000 0.000000 1.000000
vn -0.082120 0.894542 -0.439375
vn -0.082120 0.894542 -0.439375
vn 0.000000 0.000000 -1.000000
vn 0.000000 0.000000 -1.000000
vn -0.177349 -0.936464 -0.302626
vn -0.177349 -0.936464 -0.302626
vn 0.000000 0.000000 1.000000
vn 0.000000 0.000000 1.000000
vn 0.000000 0.000000 1.000000
vn 0.000000 0.000000 1.000000
vn 0.177381 -0.936461 -0.302617
vn 0.177381 -0.936461 -0.302617
vn 0.000000 0.000000 -1.000000
vn 0.000000 0.000000 -1.000000
vn 0.082136 0.894542 -0.439372
vn 0.082136 0.894542 -0.439372
vn 0.745837 -0.666128 0.000000
vn 0.745837 -0.666128 0.000000
vn 1.000000 0.000000 0.000000
vn 1.000000 0.000000 0.000000
vn 1.000000 0.000000 0.000000
vn 1.000000 0.000000 0.000000
vn -1.000000 0.000000 0.000000
vn -1.000000 0.000000 0.000000
vn -1.000000 0.000000 0.000000
vn -1.000000 0.000000 0.000000
s 1
g flag_red
f 18/31/1 10/32/2 2/33/3 17/34/4
s 2
f 12/21/5 9/22/6 4/7/7 6/6/8
s 3
f 11/5/9 15/52/10 16/50/11 8/2/12
s 4
f 7/46/13 11/5/14 10/10/15 1/8/16
s 1
f 1/47/17 10/32/2 18/31/1 13/35/18
s 3
f 14/45/19 15/52/10 11/5/9 7/46/20
s 2
f 3/11/21 9/22/6 12/21/5 5/12/22
s off
f 14/9/23 13/44/24 3/11/25 5/12/26
s 5
f 19/36/27 20/37/28 21/28/29 22/27/30
f 23/30/31 21/28/29 20/37/28 24/38/32
s off
f 17/3/33 16/43/34 6/6/35 4/7/36
s 1
f 9/22/37 18/31/1 17/34/4 4/7/38
f 13/35/18 18/31/1 9/22/37 3/11/39
s 2
f 5/12/22 12/21/5 20/24/40 19/25/41
s 6
f 15/26/42 14/51/43 22/27/44 21/28/45
s off
f 26/13/46 25/14/47 27/15/48 28/42/49
s 6
f 16/29/50 15/26/42 21/28/45 23/30/51
s 2
f 12/21/5 6/6/8 24/23/52 20/24/40
s off
f 29/17/53 30/18/54 31/19/55 32/20/56
f 14/9/57 5/12/58 25/14/59 26/13/60
s 2
f 5/12/22 19/25/41 27/15/61 25/14/62
s 5
f 19/36/27 22/27/30 28/16/63 27/39/64
s 6
f 22/27/44 14/51/43 26/41/65 28/16/66
s off
f 6/6/67 16/43/68 30/18/69 29/17/70
s 6
f 16/29/50 23/30/51 31/19/71 30/18/72
s 5
f 23/30/31 24/38/32 32/40/73 31/19/74
s 2
f 24/23/52 6/6/8 29/17/75 32/20/76
s 4
f 10/4/15 11/5/14 8/2/77 2/1/78
s off
f 17/34/79 2/33/80 8/2/81 16/50/82
f 13/35/83 14/48/84 7/49/85 1/47/86
