# This file uses centimeters as units for non-parametric coordinates.

g default
v -0.264786 0.250358 0.066337
v 0.264786 0.250358 0.066337
v -0.264786 1.499109 0.066337
v 0.264786 1.499109 0.066337
v -0.264786 1.511772 0.046676
v 0.264786 1.511772 0.046676
v -0.264786 0.250358 0.046676
v 0.264786 0.250358 0.046676
v 0.000000 1.499109 0.066337
v 0.000000 0.000000 0.066337
v 0.000000 0.000000 0.046676
v 0.000000 1.511774 0.046676
v -0.264786 1.401701 0.066337
v -0.264786 1.401701 0.046676
v 0.000000 1.402069 0.046676
v 0.264786 1.401701 0.046676
v 0.264786 1.401701 0.066337
v 0.000000 1.402069 0.066337
v -0.264786 1.484320 0.000000
v 0.000000 1.484320 0.000000
v 0.000000 1.426491 0.000000
v -0.264786 1.426125 0.000000
v 0.264786 1.426125 0.000000
v 0.264786 1.484320 0.000000
v -0.302147 1.504347 0.046676
v -0.302147 1.417017 0.046676
v -0.323174 1.484320 0.000000
v -0.323174 1.426125 0.000000
v 0.302147 1.504347 0.046676
v 0.302147 1.417017 0.046676
v 0.323174 1.426125 0.000000
v 0.323174 1.484320 0.000000
vt 0.407932 0.950284
vt 0.407932 0.967592
vt 0.378594 0.963623
vt 0.378594 0.952089
vt 0.557994 0.967599
vt 0.558000 0.950291
vt 0.587336 0.952105
vt 0.587333 0.963639
vt 0.671247 0.946008
vt 0.618767 0.945609
vt 0.620877 0.932547
vt 0.673356 0.932948
vt 0.566288 0.945208
vt 0.568397 0.932147
vt 0.684928 0.933036
vt 0.678650 0.946065
vt 0.558883 0.945151
vt 0.556825 0.932059
vt 0.623052 0.895991
vt 0.675530 0.896355
vt 0.673444 0.921432
vt 0.620964 0.921068
vt 0.682935 0.896430
vt 0.685015 0.921538
vt 0.570575 0.895555
vt 0.568485 0.920632
vt 0.556915 0.920562
vt 0.563170 0.895517
vt 0.685016 0.921502
vt 0.556913 0.920525
vt 0.415336 0.947248
vt 0.415336 0.969064
vt 0.550589 0.969068
vt 0.550596 0.947253
vt 0.535482 0.719063
vt 0.550669 0.719070
vt 0.535445 0.947248
vt 0.482995 0.669443
vt 0.550685 0.669452
vt 0.535442 0.966553
vt 0.415336 0.719060
vt 0.430486 0.719061
vt 0.430486 0.947248
vt 0.415336 0.669441
vt 0.430486 0.966554
vt 0.482965 0.971189
vt 0.482965 0.966554
vt 0.535443 0.971188
vt 0.430486 0.971189
vt 0.482965 0.947321
vt 0.625165 0.618139
vt 0.572310 0.667358
vt 0.677265 0.668156
vn 0.000000 0.000000 1.000000
vn 0.000000 0.000000 1.000000
vn 0.000000 0.000000 1.000000
vn 0.000000 0.000000 1.000000
vn -0.000000 0.976037 -0.217604
vn -0.000000 0.840698 0.541504
vn 0.000003 0.840698 0.541504
vn 0.008013 0.969766 -0.243906
vn -0.000000 0.000000 -1.000000
vn -0.000000 0.000000 -1.000000
vn -0.000000 0.000000 -1.000000
vn -0.000000 0.000000 -1.000000
vn -0.687033 -0.726626 0.000000
vn 0.000000 -1.000000 0.000000
vn 0.000000 -1.000000 0.000000
vn -0.687033 -0.726626 0.000000
vn 1.000000 0.000000 0.000000
vn 1.000000 0.000000 0.000000
vn 1.000000 0.000000 0.000000
vn 1.000000 0.000000 0.000000
vn -1.000000 0.000000 0.000000
vn -1.000000 0.000000 0.000000
vn -1.000000 0.000000 0.000000
vn -1.000000 0.000000 0.000000
vn 0.000000 0.000000 1.000000
vn 0.000000 0.000000 1.000000
vn 0.000000 0.000000 -1.000000
vn 0.000000 0.000000 -1.000000
vn -0.000003 0.840698 0.541504
vn -0.008013 0.969766 -0.243906
vn -1.000000 0.000000 0.000000
vn -1.000000 0.000000 0.000000
vn 0.000000 0.000000 -1.000000
vn 0.000000 0.000000 -1.000000
vn 0.000000 0.000000 -1.000000
vn 0.000000 0.000000 -1.000000
vn 0.000000 0.000000 -1.000000
vn 0.000000 0.000000 -1.000000
vn 1.000000 0.000000 0.000000
vn 1.000000 0.000000 0.000000
vn 0.000000 0.000000 1.000000
vn 0.000000 0.000000 1.000000
vn 0.000000 0.000000 1.000000
vn 0.000000 0.861958 -0.506980
vn -0.010304 0.867491 -0.497346
vn 0.000000 -0.886038 -0.463612
vn -0.018751 -0.895853 -0.443955
vn -0.020906 -0.896865 -0.441810
vn 0.000000 -0.886038 -0.463612
vn -0.911757 0.000000 0.410731
vn -0.911757 0.000000 0.410731
vn -0.911757 0.000000 0.410731
vn -0.911757 0.000000 0.410731
vn 0.018751 -0.895853 -0.443955
vn 0.020906 -0.896865 -0.441811
vn 0.010304 0.867491 -0.497346
vn 0.911757 0.000000 0.410731
vn 0.911757 0.000000 0.410731
vn 0.911757 0.000000 0.410731
vn 0.911757 0.000000 0.410731
vn 0.000000 0.000000 1.000000
vn 0.000000 0.000000 1.000000
vn 0.000000 0.000000 1.000000
vn 0.000000 0.000000 1.000000
vn -0.069440 0.895418 -0.439778
vn -0.069440 0.895418 -0.439778
vn 0.000000 0.000000 -1.000000
vn 0.000000 0.000000 -1.000000
vn -0.150476 -0.940712 -0.304004
vn -0.150476 -0.940712 -0.304004
vn 0.000000 0.000000 1.000000
vn 0.000000 0.000000 1.000000
vn 0.000000 0.000000 1.000000
vn 0.000000 0.000000 1.000000
vn 0.150476 -0.940711 -0.304005
vn 0.150476 -0.940711 -0.304005
vn 0.000000 0.000000 -1.000000
vn 0.000000 0.000000 -1.000000
vn 0.069440 0.895418 -0.439778
vn 0.069440 0.895418 -0.439778
vn 0.687033 -0.726626 0.000000
vn 0.687033 -0.726626 0.000000
s 1
g flag_blue
f 18/50/1 10/38/2 2/35/3 17/37/4
s 2
f 12/46/5 9/47/6 4/40/7 6/48/8
s 3
f 11/51/9 15/19/10 16/25/11 8/52/12
s 4
f 7/41/13 11/44/14 10/38/15 1/42/16
s 5
f 2/35/17 8/36/18 16/34/19 17/37/20
s 6
f 7/41/21 1/42/22 13/43/23 14/31/24
s 1
f 1/42/25 10/38/2 18/50/1 13/43/26
s 3
f 14/20/27 15/19/10 11/51/9 7/53/28
s 2
f 3/45/29 9/47/6 12/46/5 5/49/30
s 6
f 14/31/24 13/43/23 3/45/31 5/32/32
s 7
f 19/12/33 20/11/34 21/22/35 22/21/36
f 23/26/37 21/22/35 20/11/34 24/14/38
s 5
f 17/37/20 16/34/19 6/33/39 4/40/40
s 1
f 9/47/41 18/50/1 17/37/4 4/40/42
f 13/43/26 18/50/1 9/47/41 3/45/43
s 2
f 5/9/30 12/10/5 20/11/44 19/12/45
s 8
f 15/19/46 14/20/47 22/21/48 21/22/49
s off
f 26/1/50 25/2/51 27/3/52 28/4/53
s 8
f 16/25/54 15/19/46 21/22/49 23/26/55
s 2
f 12/10/5 6/13/8 24/14/56 20/11/44
s off
f 29/5/57 30/6/58 31/7/59 32/8/60
f 14/31/61 5/32/62 25/2/63 26/1/64
s 2
f 5/9/30 19/12/45 27/15/65 25/16/66
s 7
f 19/12/33 22/21/36 28/29/67 27/15/68
s 8
f 22/21/48 14/20/47 26/23/69 28/24/70
s off
f 6/33/71 16/34/72 30/6/73 29/5/74
s 8
f 16/25/54 23/26/55 31/27/75 30/28/76
s 7
f 23/26/37 24/14/38 32/18/77 31/30/78
s 2
f 24/14/56 6/13/8 29/17/79 32/18/80
s 4
f 10/38/15 11/39/14 8/36/81 2/35/82
