# This file uses centimeters as units for non-parametric coordinates.

mtllib Global_Obj.mtl
g default
v 0.892372 2.961282 62.000702
v 0.340855 2.961282 61.599998
v -0.340856 2.961282 61.599998
v -0.892372 2.961282 62.000702
v -1.103033 2.961282 62.649048
v -0.892372 2.961282 63.297394
v -0.340856 2.961282 63.698101
v 0.340855 2.961282 63.698101
v 0.892372 2.961282 63.297394
v 1.103032 2.961282 62.649048
v 1.697392 3.468291 61.415817
v 0.648346 3.468291 60.653637
v -0.648347 3.468291 60.653637
v -1.697393 3.468291 61.415817
v -2.098092 3.468291 62.649048
v -1.697393 3.468291 63.882278
v -0.648346 3.468291 64.644455
v 0.648346 3.468291 64.644455
v 1.697392 3.468291 63.882278
v 2.098092 3.468291 62.649048
v 2.336259 4.257975 60.951653
v 0.892372 4.257975 59.902611
v -0.892372 4.257975 59.902611
v -2.336261 4.257975 60.951653
v -2.887776 4.257975 62.649048
v -2.336261 4.257975 64.346443
v -0.892372 4.257975 65.395485
v 0.892372 4.257975 65.395485
v 2.336259 4.257975 64.346443
v 2.887776 4.257975 62.649048
v 2.746438 5.253034 60.653637
v 1.049046 5.253034 59.420418
v -1.049047 5.253034 59.420418
v -2.746439 5.253034 60.653637
v -3.394784 5.253034 62.649048
v -2.746438 5.253034 64.644455
v -1.049046 5.253034 65.877678
v 1.049046 5.253034 65.877678
v 2.746438 5.253034 64.644455
v 3.394784 5.253034 62.649048
v 2.887776 6.356067 60.550957
v 1.103032 6.356067 59.254265
v -1.103033 6.356067 59.254265
v -2.887777 6.356067 60.550957
v -3.569488 6.356067 62.649048
v -2.887776 6.356067 64.747147
v -1.103033 6.356067 66.043831
v 1.103032 6.356067 66.043831
v 2.887776 6.356067 64.747147
v 3.569487 6.356067 62.649048
v 2.746438 7.459098 60.653637
v 1.049046 7.459098 59.420418
v -1.049047 7.459098 59.420418
v -2.746439 7.459098 60.653637
v -3.394784 7.459098 62.649048
v -2.746438 7.459098 64.644455
v -1.049046 7.459098 65.877678
v 1.049046 7.459098 65.877678
v 2.746438 7.459098 64.644455
v 3.394784 7.459098 62.649048
v 2.336259 8.454160 60.951653
v 0.892372 8.454160 59.902611
v -0.892372 8.454160 59.902611
v -2.336261 8.454160 60.951653
v -2.887776 8.454160 62.649048
v -2.336261 8.454160 64.346443
v -0.892372 8.454160 65.395485
v 0.892372 8.454160 65.395485
v 2.336259 8.454160 64.346443
v 2.887776 8.454160 62.649048
v 1.697392 9.243841 61.415817
v 0.648346 9.243841 60.653637
v -0.648347 9.243841 60.653637
v -1.697393 9.243841 61.415817
v -2.098092 9.243841 62.649048
v -1.697393 9.243841 63.882278
v -0.648346 9.243841 64.644455
v 0.648346 9.243841 64.644455
v 1.697392 9.243841 63.882278
v 2.098092 9.243841 62.649048
v 0.892372 9.750851 62.000702
v 0.340855 9.750851 61.599998
v -0.340856 9.750851 61.599998
v -0.892372 9.750851 62.000702
v -1.103033 9.750851 62.649048
v -0.892372 9.750851 63.297394
v -0.340856 9.750851 63.698101
v 0.340855 9.750851 63.698101
v 0.892372 9.750851 63.297394
v 1.103032 9.750851 62.649048
v -0.000000 2.786580 62.649048
v -0.000000 9.925553 62.649048
vt 0.699182 0.253120
vt 0.706316 0.243954
vt 0.497846 0.247022
vt 0.730129 0.255517
vt 0.505447 0.255047
vt 0.492424 0.270071
vt 0.475938 0.258486
vt 0.517095 0.258893
vt 0.512712 0.275015
vt 0.529973 0.258686
vt 0.534111 0.274955
vt 0.541663 0.254351
vt 0.554802 0.269949
vt 0.713098 0.268029
vt 0.655049 0.248033
vt 0.663048 0.255661
vt 0.650807 0.271329
vt 0.633753 0.260598
vt 0.674878 0.258908
vt 0.671321 0.275232
vt 0.549255 0.245561
vt 0.687727 0.258045
vt 0.572448 0.258321
vt 0.483165 0.286529
vt 0.458406 0.275507
vt 0.509588 0.290844
vt 0.692689 0.274082
vt 0.748429 0.273676
vt 0.722601 0.284642
vt 0.642399 0.288236
vt 0.536552 0.290906
vt 0.617111 0.278491
vt 0.563445 0.287025
vt 0.589799 0.277389
vt 0.477454 0.304086
vt 0.446732 0.296833
vt 0.669007 0.291200
vt 0.695940 0.289888
vt 0.759865 0.296040
vt 0.728336 0.302305
vt 0.507634 0.306729
vt 0.637590 0.306062
vt 0.537799 0.306849
vt 0.568274 0.304957
vt 0.603310 0.300345
vt 0.475233 0.322278
vt 0.667866 0.307164
vt 0.697997 0.305746
vt 0.763838 0.320365
vt 0.441968 0.320744
vt 0.730539 0.320527
vt 0.506781 0.322706
vt 0.537996 0.322840
vt 0.569545 0.323269
vt 0.602904 0.324654
vt 0.636299 0.324343
vt 0.667828 0.323163
vt 0.699009 0.321707
vt 0.476504 0.340589
vt 0.760298 0.344487
vt 0.444697 0.345240
vt 0.506979 0.338697
vt 0.537143 0.338817
vt 0.567324 0.341460
vt 0.729247 0.338808
vt 0.638501 0.342566
vt 0.602509 0.348772
vt 0.668840 0.339124
vt 0.698971 0.337706
vt 0.481332 0.358521
vt 0.454979 0.368157
vt 0.508226 0.354640
vt 0.535190 0.354702
vt 0.749726 0.366380
vt 0.724438 0.356634
vt 0.644237 0.360228
vt 0.618409 0.371195
vt 0.561613 0.359017
vt 0.670898 0.354982
vt 0.586371 0.370039
vt 0.489976 0.375597
vt 0.472330 0.387225
vt 0.510666 0.370591
vt 0.697830 0.353670
vt 0.733085 0.384272
vt 0.716030 0.373541
vt 0.653739 0.376842
vt 0.636709 0.389354
vt 0.674148 0.370788
vt 0.532066 0.370531
vt 0.552354 0.375475
vt 0.695516 0.369638
vt 0.568839 0.387060
vt 0.503115 0.391195
vt 0.495523 0.399985
vt 0.514805 0.386860
vt 0.527682 0.386653
vt 0.539331 0.390499
vt 0.546931 0.398524
vt 0.522910 0.241202
vt 0.711789 0.396837
vt 0.521868 0.404344
vt 0.703789 0.389209
vt 0.667656 0.391750
vt 0.660522 0.400916
vt 0.679110 0.386826
vt 0.691960 0.385962
vt 0.679783 0.240943
vt 0.687054 0.403927
vn 0.323957 -0.916326 -0.235367
vn 0.123742 -0.916327 -0.380832
vn 0.195837 -0.773546 -0.602722
vn 0.512706 -0.773547 -0.372502
vn -0.123742 -0.916327 -0.380832
vn -0.195837 -0.773546 -0.602722
vn -0.323957 -0.916326 -0.235367
vn -0.512706 -0.773547 -0.372501
vn -0.400432 -0.916327 0.000000
vn -0.633739 -0.773547 0.000000
vn -0.323958 -0.916326 0.235367
vn -0.512706 -0.773547 0.372502
vn -0.123743 -0.916326 0.380834
vn -0.195837 -0.773546 0.602722
vn 0.123743 -0.916326 0.380834
vn 0.195837 -0.773546 0.602722
vn 0.323958 -0.916326 0.235367
vn 0.512706 -0.773547 0.372502
vn 0.400432 -0.916327 0.000000
vn 0.633739 -0.773547 -0.000000
vn 0.256442 -0.557961 -0.789251
vn 0.671377 -0.557962 -0.487783
vn -0.256442 -0.557961 -0.789251
vn -0.671376 -0.557962 -0.487783
vn -0.829867 -0.557961 0.000000
vn -0.671376 -0.557962 0.487783
vn -0.256442 -0.557961 0.789251
vn 0.256442 -0.557961 0.789251
vn 0.671376 -0.557962 0.487783
vn 0.829867 -0.557961 -0.000000
vn 0.295555 -0.291930 -0.909629
vn 0.773776 -0.291930 -0.562182
vn -0.295555 -0.291930 -0.909629
vn -0.773776 -0.291930 -0.562182
vn -0.956440 -0.291930 0.000000
vn -0.773776 -0.291931 0.562181
vn -0.295554 -0.291931 0.909629
vn 0.295554 -0.291931 0.909629
vn 0.773776 -0.291931 0.562181
vn 0.956440 -0.291930 0.000000
vn 0.309016 0.000000 -0.951057
vn 0.809018 0.000000 -0.587784
vn -0.309016 0.000000 -0.951057
vn -0.809018 0.000000 -0.587784
vn -1.000000 0.000000 0.000000
vn -0.809016 0.000000 0.587786
vn -0.309015 -0.000000 0.951057
vn 0.309015 -0.000000 0.951057
vn 0.809017 -0.000000 0.587786
vn 1.000000 0.000000 0.000000
vn 0.295555 0.291930 -0.909629
vn 0.773776 0.291930 -0.562182
vn -0.295555 0.291930 -0.909629
vn -0.773776 0.291930 -0.562182
vn -0.956440 0.291930 0.000000
vn -0.773776 0.291931 0.562181
vn -0.295555 0.291930 0.909628
vn 0.295555 0.291930 0.909628
vn 0.773776 0.291931 0.562181
vn 0.956440 0.291930 0.000000
vn 0.256442 0.557961 -0.789251
vn 0.671377 0.557962 -0.487783
vn -0.256442 0.557961 -0.789251
vn -0.671377 0.557962 -0.487783
vn -0.829867 0.557961 0.000000
vn -0.671377 0.557961 0.487783
vn -0.256442 0.557961 0.789251
vn 0.256442 0.557961 0.789251
vn 0.671376 0.557961 0.487783
vn 0.829867 0.557961 0.000000
vn 0.195836 0.773547 -0.602721
vn 0.512705 0.773548 -0.372501
vn -0.195836 0.773547 -0.602721
vn -0.512705 0.773548 -0.372501
vn -0.633738 0.773548 0.000000
vn -0.512705 0.773548 0.372501
vn -0.195836 0.773547 0.602721
vn 0.195836 0.773547 0.602721
vn 0.512706 0.773548 0.372501
vn 0.633738 0.773548 0.000000
vn 0.123742 0.916326 -0.380833
vn 0.323957 0.916326 -0.235368
vn -0.123742 0.916327 -0.380833
vn -0.323957 0.916326 -0.235368
vn -0.400432 0.916326 0.000000
vn -0.323958 0.916326 0.235368
vn -0.123743 0.916326 0.380834
vn 0.123743 0.916326 0.380834
vn 0.323958 0.916326 0.235367
vn 0.400432 0.916326 0.000000
vn 0.000000 -1.000000 -0.000000
vn 0.000000 1.000000 0.000000
s 1
g orb
usemtl lambert2SG
f 1/1/1 2/2/2 12/4/3 11/14/4
f 2/3/2 3/5/5 13/6/6 12/7/3
f 3/5/5 4/8/7 14/9/8 13/6/6
f 4/8/7 5/10/9 15/11/10 14/9/8
f 5/10/9 6/12/11 16/13/12 15/11/10
f 6/12/11 7/21/13 17/23/14 16/13/12
f 7/15/13 8/16/15 18/17/16 17/18/14
f 8/16/15 9/19/17 19/20/18 18/17/16
f 9/19/17 10/22/19 20/27/20 19/20/18
f 10/22/19 1/1/1 11/14/4 20/27/20
f 11/14/4 12/4/3 22/28/21 21/29/22
f 12/7/3 13/6/6 23/24/23 22/25/21
f 13/6/6 14/9/8 24/26/24 23/24/23
f 14/9/8 15/11/10 25/31/25 24/26/24
f 15/11/10 16/13/12 26/33/26 25/31/25
f 16/13/12 17/23/14 27/34/27 26/33/26
f 17/18/14 18/17/16 28/30/28 27/32/27
f 18/17/16 19/20/18 29/37/29 28/30/28
f 19/20/18 20/27/20 30/38/30 29/37/29
f 20/27/20 11/14/4 21/29/22 30/38/30
f 21/29/22 22/28/21 32/39/31 31/40/32
f 22/25/21 23/24/23 33/35/33 32/36/31
f 23/24/23 24/26/24 34/41/34 33/35/33
f 24/26/24 25/31/25 35/43/35 34/41/34
f 25/31/25 26/33/26 36/44/36 35/43/35
f 26/33/26 27/34/27 37/45/37 36/44/36
f 27/32/27 28/30/28 38/42/38 37/45/37
f 28/30/28 29/37/29 39/47/39 38/42/38
f 29/37/29 30/38/30 40/48/40 39/47/39
f 30/38/30 21/29/22 31/40/32 40/48/40
f 31/40/32 32/39/31 42/49/41 41/51/42
f 32/36/31 33/35/33 43/46/43 42/50/41
f 33/35/33 34/41/34 44/52/44 43/46/43
f 34/41/34 35/43/35 45/53/45 44/52/44
f 35/43/35 36/44/36 46/54/46 45/53/45
f 36/44/36 37/45/37 47/55/47 46/54/46
f 37/45/37 38/42/38 48/56/48 47/55/47
f 38/42/38 39/47/39 49/57/49 48/56/48
f 39/47/39 40/48/40 50/58/50 49/57/49
f 40/48/40 31/40/32 41/51/42 50/58/50
f 41/51/42 42/49/41 52/60/51 51/65/52
f 42/50/41 43/46/43 53/59/53 52/61/51
f 43/46/43 44/52/44 54/62/54 53/59/53
f 44/52/44 45/53/45 55/63/55 54/62/54
f 45/53/45 46/54/46 56/64/56 55/63/55
f 46/54/46 47/55/47 57/67/57 56/64/56
f 47/55/47 48/56/48 58/66/58 57/67/57
f 48/56/48 49/57/49 59/68/59 58/66/58
f 49/57/49 50/58/50 60/69/60 59/68/59
f 50/58/50 41/51/42 51/65/52 60/69/60
f 51/65/52 52/60/51 62/74/61 61/75/62
f 52/61/51 53/59/53 63/70/63 62/71/61
f 53/59/53 54/62/54 64/72/64 63/70/63
f 54/62/54 55/63/55 65/73/65 64/72/64
f 55/63/55 56/64/56 66/78/66 65/73/65
f 56/64/56 57/67/57 67/80/67 66/78/66
f 57/67/57 58/66/58 68/76/68 67/77/67
f 58/66/58 59/68/59 69/79/69 68/76/68
f 59/68/59 60/69/60 70/84/70 69/79/69
f 60/69/60 51/65/52 61/75/62 70/84/70
f 61/75/62 62/74/61 72/85/71 71/86/72
f 62/71/61 63/70/63 73/81/73 72/82/71
f 63/70/63 64/72/64 74/83/74 73/81/73
f 64/72/64 65/73/65 75/90/75 74/83/74
f 65/73/65 66/78/66 76/91/76 75/90/75
f 66/78/66 67/80/67 77/93/77 76/91/76
f 67/77/67 68/76/68 78/87/78 77/88/77
f 68/76/68 69/79/69 79/89/79 78/87/78
f 69/79/69 70/84/70 80/92/80 79/89/79
f 70/84/70 61/75/62 71/86/72 80/92/80
f 71/86/72 72/85/71 82/101/81 81/103/82
f 72/82/71 73/81/73 83/94/83 82/95/81
f 73/81/73 74/83/74 84/96/84 83/94/83
f 74/83/74 75/90/75 85/97/85 84/96/84
f 75/90/75 76/91/76 86/98/86 85/97/85
f 76/91/76 77/93/77 87/99/87 86/98/86
f 77/88/77 78/87/78 88/104/88 87/105/87
f 78/87/78 79/89/79 89/106/89 88/104/88
f 79/89/79 80/92/80 90/107/90 89/106/89
f 80/92/80 71/86/72 81/103/82 90/107/90
f 2/2/2 1/1/1 91/108/91
f 3/5/5 2/3/2 91/100/91
f 4/8/7 3/5/5 91/100/91
f 5/10/9 4/8/7 91/100/91
f 6/12/11 5/10/9 91/100/91
f 7/21/13 6/12/11 91/100/91
f 8/16/15 7/15/13 91/108/91
f 9/19/17 8/16/15 91/108/91
f 10/22/19 9/19/17 91/108/91
f 1/1/1 10/22/19 91/108/91
f 81/103/82 82/101/81 92/109/92
f 82/95/81 83/94/83 92/102/92
f 83/94/83 84/96/84 92/102/92
f 84/96/84 85/97/85 92/102/92
f 85/97/85 86/98/86 92/102/92
f 86/98/86 87/99/87 92/102/92
f 87/105/87 88/104/88 92/109/92
f 88/104/88 89/106/89 92/109/92
f 89/106/89 90/107/90 92/109/92
f 90/107/90 81/103/82 92/109/92
