# This file uses centimeters as units for non-parametric coordinates.

g default
v 0.202492 0.000001 -0.169912
v 0.045898 0.000001 -0.260320
v -0.132172 0.000001 -0.228922
v -0.248398 0.000001 -0.090408
v -0.248398 0.000001 0.090408
v -0.132172 0.000001 0.228922
v 0.045898 0.000001 0.260320
v 0.202492 0.000001 0.169912
v 0.264336 0.000001 0.000000
v 0.202492 3.450672 -0.169912
v 0.045898 3.450672 -0.260320
v -0.132172 3.450672 -0.228922
v -0.248398 3.450672 -0.090408
v -0.248398 3.450672 0.090408
v -0.132172 3.450672 0.228922
v 0.045898 3.450672 0.260320
v 0.202492 3.450672 0.169912
v 0.264336 3.450672 0.000000
v 0.000000 0.000001 0.000000
v 0.000000 3.450672 0.000000
v -0.248398 0.354631 0.090408
v -0.248398 0.354631 -0.090408
v -0.132172 0.354631 -0.228922
v 0.045898 0.354631 -0.260320
v 0.202492 0.354631 -0.169912
v 0.264336 0.354631 0.000000
v 0.202492 0.354631 0.169912
v 0.045898 0.354631 0.260320
v -0.132172 0.354631 0.228922
v 0.235195 -0.000000 -0.210648
v 0.041061 -0.000000 -0.322731
v 0.041061 0.354631 -0.322731
v 0.235195 0.354631 -0.210648
v -0.148010 -0.000000 -0.283805
v -0.148010 0.354631 -0.283805
v -0.292107 -0.000000 -0.112084
v -0.292107 0.354631 -0.112084
v -0.292107 -0.000000 0.112083
v -0.292107 0.354631 0.112083
v -0.148010 -0.000000 0.283805
v -0.148010 0.354631 0.283805
v 0.041061 -0.000000 0.322731
v 0.041061 0.354631 0.322731
v 0.235195 -0.000000 0.210648
v 0.235195 0.354631 0.210648
v 0.311867 -0.000000 0.000000
v 0.311867 0.354631 0.000000
vt 0.144089 0.685216
vt 0.107448 0.664061
vt 0.065781 0.671408
vt 0.038584 0.703819
vt 0.038584 0.746129
vt 0.065781 0.778540
vt 0.107448 0.785887
vt 0.144089 0.764732
vt 0.158560 0.724974
vt 0.302905 0.632745
vt 0.327643 0.632745
vt 0.327643 0.666860
vt 0.302905 0.666860
vt 0.319052 0.632745
vt 0.319052 0.666860
vt 0.281150 0.632745
vt 0.281150 0.666860
vt 0.231673 0.632745
vt 0.231673 0.666860
vt 0.193771 0.632745
vt 0.193771 0.666860
vt 0.185180 0.632745
vt 0.185180 0.666860
vt 0.209918 0.632745
vt 0.209918 0.666860
vt 0.256411 0.632745
vt 0.256411 0.666860
vt 0.276366 0.666860
vt 0.236457 0.666860
vt 0.144089 0.834819
vt 0.107448 0.813665
vt 0.065781 0.821012
vt 0.038584 0.853423
vt 0.038584 0.895733
vt 0.065781 0.928144
vt 0.107448 0.935491
vt 0.144089 0.914336
vt 0.158560 0.874578
vt 0.096707 0.722500
vt 0.096707 0.872104
vt 0.236457 0.964692
vt 0.276366 0.964692
vt 0.306938 0.666860
vt 0.306938 0.964692
vt 0.313868 0.666860
vt 0.313868 0.964692
vt 0.293914 0.666860
vt 0.293914 0.964692
vt 0.256411 0.666860
vt 0.256411 0.964692
vt 0.218909 0.666860
vt 0.218909 0.964692
vt 0.198955 0.666860
vt 0.198955 0.964692
vt 0.205885 0.666860
vt 0.205885 0.964692
vt 0.293914 0.632745
vt 0.313868 0.632745
vt 0.306938 0.632745
vt 0.276366 0.632745
vt 0.236457 0.632745
vt 0.205885 0.632745
vt 0.198955 0.632745
vt 0.218909 0.632745
vt 0.256411 0.632745
vn 0.500001 0.000000 -0.866025
vn 0.500001 0.000000 -0.866025
vn 0.500001 0.000000 -0.866025
vn 0.500001 0.000000 -0.866025
vn -0.201651 0.000000 -0.979457
vn -0.201651 0.000000 -0.979457
vn -0.201651 0.000000 -0.979457
vn -0.201651 0.000000 -0.979457
vn -0.766034 0.000000 -0.642800
vn -0.766034 0.000000 -0.642800
vn -0.766034 0.000000 -0.642800
vn -0.766034 0.000000 -0.642800
vn -1.000000 0.000000 0.000000
vn -1.000000 0.000000 0.000000
vn -1.000000 0.000000 0.000000
vn -1.000000 0.000000 0.000000
vn -0.766034 0.000000 0.642800
vn -0.766034 0.000000 0.642800
vn -0.766034 0.000000 0.642800
vn -0.766034 0.000000 0.642800
vn -0.201652 0.000000 0.979457
vn -0.201652 0.000000 0.979457
vn -0.201652 0.000000 0.979457
vn -0.201652 0.000000 0.979457
vn 0.500001 0.000000 0.866025
vn 0.500001 0.000000 0.866025
vn 0.500001 0.000000 0.866025
vn 0.500001 0.000000 0.866025
vn 0.939690 0.000000 0.342028
vn 0.939690 0.000000 0.342028
vn 0.939690 0.000000 0.342028
vn 0.939690 0.000000 0.342028
vn 0.939690 0.000000 -0.342028
vn 0.939690 0.000000 -0.342028
vn 0.939690 0.000000 -0.342028
vn 0.939690 0.000000 -0.342028
vn 0.000000 -1.000000 0.000000
vn 0.000000 -1.000000 0.000000
vn 0.000000 -1.000000 0.000000
vn 0.000000 -1.000000 0.000000
vn 0.000000 -1.000000 0.000000
vn 0.000000 -1.000000 0.000000
vn 0.000000 -1.000000 0.000000
vn 0.000000 -1.000000 0.000000
vn 0.000000 -1.000000 0.000000
vn 0.000000 -1.000000 0.000000
vn 0.000000 1.000000 0.000000
vn 0.000000 1.000000 -0.000000
vn 0.000000 1.000000 -0.000000
vn 0.000000 1.000000 -0.000000
vn 0.000000 1.000000 0.000000
vn 0.000000 1.000000 0.000000
vn 0.000000 1.000000 0.000000
vn 0.000000 1.000000 -0.000000
vn 0.000000 1.000000 -0.000000
vn 0.000000 1.000000 0.000000
vn -1.000000 0.000000 0.000000
vn -1.000000 0.000000 0.000000
vn -1.000000 0.000000 0.000000
vn -1.000000 0.000000 0.000000
vn -0.766046 0.000000 -0.642786
vn -0.766046 0.000000 -0.642786
vn -0.766046 0.000000 -0.642786
vn -0.766046 0.000000 -0.642786
vn -0.173648 0.000000 -0.984808
vn -0.173648 0.000000 -0.984808
vn -0.173648 0.000000 -0.984808
vn -0.173648 0.000000 -0.984808
vn 0.499996 0.000000 -0.866028
vn 0.499996 0.000000 -0.866028
vn 0.499996 0.000000 -0.866028
vn 0.499996 0.000000 -0.866028
vn 0.939691 -0.000000 -0.342025
vn 0.939691 -0.000000 -0.342025
vn 0.939691 -0.000000 -0.342025
vn 0.939691 -0.000000 -0.342025
vn 0.939691 0.000000 0.342025
vn 0.939691 0.000000 0.342025
vn 0.939691 0.000000 0.342025
vn 0.939691 0.000000 0.342025
vn 0.499996 0.000000 0.866028
vn 0.499996 0.000000 0.866028
vn 0.499996 0.000000 0.866028
vn 0.499996 0.000000 0.866028
vn -0.173648 0.000000 0.984808
vn -0.173648 0.000000 0.984808
vn -0.173648 0.000000 0.984808
vn -0.173648 0.000000 0.984808
vn -0.766046 0.000000 0.642786
vn -0.766046 0.000000 0.642786
vn -0.766046 0.000000 0.642786
vn -0.766046 0.000000 0.642786
vn -0.000005 -1.000000 0.000009
vn -0.000005 -1.000000 0.000009
vn -0.000005 -1.000000 0.000009
vn -0.000005 -1.000000 0.000009
vn -0.000005 1.000000 0.000008
vn -0.000005 1.000000 0.000008
vn -0.000005 1.000000 0.000008
vn -0.000005 1.000000 0.000008
vn 0.000002 -1.000000 0.000009
vn 0.000002 -1.000000 0.000009
vn 0.000002 -1.000000 0.000009
vn 0.000002 -1.000000 0.000009
vn 0.000002 1.000000 0.000007
vn 0.000002 1.000000 0.000007
vn 0.000002 1.000000 0.000007
vn 0.000002 1.000000 0.000007
vn 0.000009 -1.000000 0.000008
vn 0.000009 -1.000000 0.000008
vn 0.000009 -1.000000 0.000008
vn 0.000009 -1.000000 0.000008
vn 0.000008 1.000000 0.000007
vn 0.000008 1.000000 0.000007
vn 0.000008 1.000000 0.000007
vn 0.000008 1.000000 0.000007
vn 0.000013 -1.000000 0.000000
vn 0.000013 -1.000000 0.000000
vn 0.000013 -1.000000 0.000000
vn 0.000013 -1.000000 0.000000
vn 0.000011 1.000000 0.000000
vn 0.000011 1.000000 0.000000
vn 0.000011 1.000000 0.000000
vn 0.000011 1.000000 0.000000
vn 0.000009 -1.000000 -0.000008
vn 0.000009 -1.000000 -0.000008
vn 0.000009 -1.000000 -0.000008
vn 0.000009 -1.000000 -0.000008
vn 0.000008 1.000000 -0.000007
vn 0.000008 1.000000 -0.000007
vn 0.000008 1.000000 -0.000007
vn 0.000008 1.000000 -0.000007
vn 0.000002 -1.000000 -0.000009
vn 0.000002 -1.000000 -0.000009
vn 0.000002 -1.000000 -0.000009
vn 0.000002 -1.000000 -0.000009
vn 0.000002 1.000000 -0.000007
vn 0.000002 1.000000 -0.000007
vn 0.000002 1.000000 -0.000007
vn 0.000002 1.000000 -0.000007
vn -0.000005 -1.000000 -0.000009
vn -0.000005 -1.000000 -0.000009
vn -0.000005 -1.000000 -0.000009
vn -0.000005 -1.000000 -0.000009
vn -0.000005 1.000000 -0.000008
vn -0.000005 1.000000 -0.000008
vn -0.000005 1.000000 -0.000008
vn -0.000005 1.000000 -0.000008
vn -0.000012 -1.000000 -0.000004
vn -0.000012 -1.000000 -0.000004
vn -0.000012 -1.000000 -0.000004
vn -0.000012 -1.000000 -0.000004
vn -0.000010 1.000000 -0.000004
vn -0.000010 1.000000 -0.000004
vn -0.000010 1.000000 -0.000004
vn -0.000010 1.000000 -0.000004
vn -0.000012 -1.000000 0.000004
vn -0.000012 -1.000000 0.000004
vn -0.000012 -1.000000 0.000004
vn -0.000012 -1.000000 0.000004
vn -0.000010 1.000000 0.000004
vn -0.000010 1.000000 0.000004
vn -0.000010 1.000000 0.000004
vn -0.000010 1.000000 0.000004
s off
g pole1
f 30/10/1 31/11/2 32/12/3 33/13/4
f 31/11/5 34/14/6 35/15/7 32/12/8
f 34/14/9 36/16/10 37/17/11 35/15/12
f 36/16/13 38/18/14 39/19/15 37/17/16
f 38/18/17 40/20/18 41/21/19 39/19/20
f 40/20/21 42/22/22 43/23/23 41/21/24
f 42/22/25 44/24/26 45/25/27 43/23/28
f 44/24/29 46/26/30 47/27/31 45/25/32
f 46/26/33 30/10/34 33/13/35 47/27/36
s 1
f 2/2/37 1/1/38 19/39/39
f 3/3/40 2/2/37 19/39/39
f 4/4/41 3/3/40 19/39/39
f 5/5/42 4/4/41 19/39/39
f 6/6/43 5/5/42 19/39/39
f 7/7/44 6/6/43 19/39/39
f 8/8/45 7/7/44 19/39/39
f 9/9/46 8/8/45 19/39/39
f 1/1/38 9/9/46 19/39/39
s 2
f 10/37/47 11/36/48 20/40/49
f 11/36/48 12/35/50 20/40/49
f 12/35/50 13/34/51 20/40/49
f 13/34/51 14/33/52 20/40/49
f 14/33/52 15/32/53 20/40/49
f 15/32/53 16/31/54 20/40/49
f 16/31/54 17/30/55 20/40/49
f 17/30/55 18/38/56 20/40/49
f 18/38/56 10/37/47 20/40/49
s off
f 22/28/57 21/29/58 14/41/59 13/42/60
f 23/43/61 22/28/62 13/42/63 12/44/64
f 24/45/65 23/43/66 12/44/67 11/46/68
f 25/47/69 24/45/70 11/46/71 10/48/72
f 26/49/73 25/47/74 10/48/75 18/50/76
f 27/51/77 26/49/78 18/50/79 17/52/80
f 28/53/81 27/51/82 17/52/83 16/54/84
f 29/55/85 28/53/86 16/54/87 15/56/88
f 21/29/89 29/55/90 15/56/91 14/41/92
f 1/57/93 2/58/94 31/11/95 30/10/96
f 24/45/97 25/47/98 33/13/99 32/12/100
f 2/58/101 3/59/102 34/14/103 31/11/104
f 23/43/105 24/45/106 32/12/107 35/15/108
f 3/59/109 4/60/110 36/16/111 34/14/112
f 22/28/113 23/43/114 35/15/115 37/17/116
f 4/60/117 5/61/118 38/18/119 36/16/120
f 21/29/121 22/28/122 37/17/123 39/19/124
f 5/61/125 6/62/126 40/20/127 38/18/128
f 29/55/129 21/29/130 39/19/131 41/21/132
f 6/62/133 7/63/134 42/22/135 40/20/136
f 28/53/137 29/55/138 41/21/139 43/23/140
f 7/63/141 8/64/142 44/24/143 42/22/144
f 27/51/145 28/53/146 43/23/147 45/25/148
f 8/64/149 9/65/150 46/26/151 44/24/152
f 26/49/153 27/51/154 45/25/155 47/27/156
f 9/65/157 1/57/158 30/10/159 46/26/160
f 25/47/161 26/49/162 47/27/163 33/13/164
