# This file uses centimeters as units for non-parametric coordinates.

mtllib Deco_shield.mtl
g default
v -9.412440 4.371062 -0.804164
v -4.842141 1.806157 0.294416
v -0.271842 4.371062 -0.804164
v -10.286947 7.799469 -0.804164
v -4.842141 7.799469 1.070562
v 0.602664 7.799469 -0.804164
v -10.478036 11.324358 -0.804164
v -4.842141 14.301968 0.294416
v 0.793754 11.324358 -0.804164
v -11.827307 12.107288 -1.832358
v -4.842141 15.797759 -0.470770
v 2.143025 12.107288 -1.832358
v -11.590471 7.738518 -1.832358
v -4.842141 7.738518 0.491190
v 1.906187 7.738518 -1.832358
v -10.506601 3.489327 -1.832358
v -4.842141 0.310366 -0.470770
v 0.822318 3.489327 -1.832358
v -7.692833 12.813164 -0.254874
v -7.740345 7.799469 0.396618
v -7.542973 2.905911 -0.254874
v -1.991451 12.813164 -0.254874
v -1.943937 7.799469 0.396618
v -2.141310 2.905911 -0.254874
v -1.349558 13.952526 -1.151564
v -1.285912 7.738518 -0.180247
v -1.494721 1.673408 -1.151565
v -8.334724 13.952526 -1.151564
v -8.398374 7.738518 -0.180247
v -8.189565 1.673408 -1.151565
vt 0.103654 0.416587
vt 0.114897 0.336997
vt 0.160296 0.327907
vt 0.151878 0.419551
vt 0.199493 0.422391
vt 0.203877 0.344334
vt 0.101791 0.499185
vt 0.094785 0.509630
vt 0.045749 0.475514
vt 0.056976 0.471225
vt 0.443517 0.436196
vt 0.402697 0.471564
vt 0.196726 0.502775
vt 0.383825 0.389982
vt 0.429013 0.378623
vt 0.360991 0.507287
vt 0.203273 0.513510
vt 0.308428 0.494444
vt 0.295574 0.412513
vt 0.148091 0.530522
vt 0.339213 0.401321
vt 0.108610 0.326561
vt 0.148412 0.519168
vt 0.234296 0.370306
vt 0.242331 0.424200
vt 0.244102 0.476489
vt 0.058772 0.412997
vt 0.080460 0.357462
vt 0.070078 0.350901
vt 0.212071 0.335232
vt 0.246531 0.367031
vt 0.253489 0.423469
vt 0.161337 0.316350
vt 0.255455 0.480073
vt 0.047001 0.410749
vt 0.360283 0.311241
vt 0.310395 0.305316
vt 0.270462 0.334907
vt 0.398480 0.326608
vn -0.236019 -0.130553 0.962939
vn -0.236019 -0.130553 0.962939
vn -0.236018 -0.130553 0.962939
vn -0.236019 -0.130553 0.962939
vn 0.400549 -0.122677 0.908026
vn 0.400549 -0.122677 0.908026
vn 0.400549 -0.122677 0.908026
vn 0.400549 -0.122677 0.908026
vn -0.236359 0.120501 0.964165
vn -0.236359 0.120501 0.964165
vn -0.236359 0.120501 0.964165
vn -0.236359 0.120501 0.964165
vn 0.327862 0.066391 0.942390
vn 0.327862 0.066391 0.942390
vn 0.327862 0.066391 0.942390
vn 0.327862 0.066391 0.942390
vn -0.385170 0.422558 0.820420
vn -0.385170 0.422558 0.820420
vn -0.385170 0.422558 0.820420
vn -0.385170 0.422558 0.820420
vn 0.382282 0.424503 0.820767
vn 0.382282 0.424503 0.820767
vn 0.382282 0.424503 0.820767
vn 0.382282 0.424503 0.820767
vn 0.348068 -0.080033 -0.934047
vn 0.348068 -0.080033 -0.934047
vn 0.348068 -0.080033 -0.934047
vn 0.348068 -0.080033 -0.934047
vn -0.219950 -0.131898 -0.966553
vn -0.219950 -0.131898 -0.966553
vn -0.219950 -0.131898 -0.966553
vn -0.219950 -0.131898 -0.966553
vn 0.424317 0.137465 -0.895019
vn 0.424317 0.137465 -0.895019
vn 0.424317 0.137465 -0.895019
vn 0.424317 0.137465 -0.895019
vn -0.217156 0.141737 -0.965792
vn -0.217156 0.141737 -0.965792
vn -0.217156 0.141737 -0.965792
vn -0.217156 0.141737 -0.965792
vn -0.493385 -0.327431 0.805829
vn -0.493385 -0.327431 0.805829
vn -0.493385 -0.327431 0.805829
vn -0.493385 -0.327431 0.805829
vn 0.344124 -0.427613 0.835898
vn 0.344124 -0.427613 0.835898
vn 0.344124 -0.427613 0.835898
vn 0.344124 -0.427613 0.835898
vn 0.607356 -0.154922 0.779177
vn 0.607356 -0.154922 0.779177
vn 0.607356 -0.154922 0.779177
vn 0.607356 -0.154922 0.779177
vn 0.617995 -0.033502 0.785468
vn 0.617996 -0.033502 0.785468
vn 0.617996 -0.033502 0.785468
vn 0.617995 -0.033502 0.785468
vn -0.607356 -0.154922 0.779177
vn -0.607356 -0.154922 0.779177
vn -0.607356 -0.154922 0.779177
vn -0.607356 -0.154922 0.779177
vn -0.617995 -0.033502 0.785468
vn -0.617995 -0.033502 0.785468
vn -0.617995 -0.033502 0.785468
vn -0.617995 -0.033502 0.785468
vn -0.327862 0.066391 0.942390
vn -0.327862 0.066391 0.942390
vn -0.327862 0.066391 0.942390
vn -0.327862 0.066391 0.942390
vn -0.400549 -0.122677 0.908026
vn -0.400549 -0.122677 0.908026
vn -0.400549 -0.122677 0.908026
vn -0.400549 -0.122677 0.908026
vn 0.236359 0.120501 0.964165
vn 0.236359 0.120501 0.964165
vn 0.236359 0.120501 0.964165
vn 0.236359 0.120501 0.964165
vn 0.236019 -0.130553 0.962939
vn 0.236019 -0.130553 0.962939
vn 0.236019 -0.130553 0.962939
vn 0.236019 -0.130553 0.962939
vn 0.385170 0.422558 0.820420
vn 0.385170 0.422558 0.820420
vn 0.385170 0.422558 0.820420
vn 0.385170 0.422558 0.820420
vn -0.348068 -0.080033 -0.934047
vn -0.348068 -0.080033 -0.934047
vn -0.348068 -0.080033 -0.934047
vn -0.348068 -0.080033 -0.934047
vn -0.424317 0.137465 -0.895019
vn -0.424317 0.137465 -0.895019
vn -0.424317 0.137465 -0.895019
vn -0.424317 0.137465 -0.895019
vn -0.382282 0.424503 0.820767
vn -0.382282 0.424503 0.820767
vn -0.382282 0.424503 0.820767
vn -0.382282 0.424503 0.820767
vn 0.219950 -0.131898 -0.966553
vn 0.219950 -0.131898 -0.966553
vn 0.219950 -0.131898 -0.966553
vn 0.219950 -0.131898 -0.966553
vn 0.217156 0.141737 -0.965792
vn 0.217156 0.141737 -0.965792
vn 0.217156 0.141737 -0.965792
vn 0.217156 0.141737 -0.965792
vn 0.493385 -0.327431 0.805829
vn 0.493385 -0.327431 0.805829
vn 0.493385 -0.327431 0.805829
vn 0.493385 -0.327431 0.805829
vn -0.344124 -0.427613 0.835898
vn -0.344124 -0.427613 0.835898
vn -0.344124 -0.427613 0.835898
vn -0.344124 -0.427613 0.835898
s off
g shield
usemtl lambert2SG
f 20/1/1 21/2/2 2/3/3 5/4/4
f 23/5/5 24/6/6 3/24/7 6/25/8
f 19/7/9 20/1/10 5/4/11 8/23/12
f 22/13/13 23/5/14 6/25/15 9/26/16
f 19/7/17 28/8/18 10/9/19 7/10/20
f 22/13/21 25/17/22 11/20/23 8/23/24
f 10/11/25 28/12/26 29/14/27 13/15/28
f 11/16/29 25/18/30 26/19/31 14/21/32
f 13/15/33 29/14/34 30/36/35 16/39/36
f 14/21/37 26/19/38 27/38/39 17/37/40
f 30/22/41 21/2/42 1/28/43 16/29/44
f 27/30/45 24/6/46 2/3/47 17/33/48
f 6/25/49 3/24/50 18/31/51 15/32/52
f 12/34/53 9/26/54 6/25/55 15/32/56
f 13/35/57 16/29/58 1/28/59 4/27/60
f 7/10/61 10/9/62 13/35/63 4/27/64
f 4/27/65 20/1/66 19/7/67 7/10/68
f 1/28/69 21/2/70 20/1/71 4/27/72
f 5/4/73 23/5/74 22/13/75 8/23/76
f 2/3/77 24/6/78 23/5/79 5/4/80
f 12/34/81 25/17/82 22/13/83 9/26/84
f 26/19/85 25/18/86 12/34/87 15/32/88
f 27/38/89 26/19/90 15/32/91 18/31/92
f 8/23/93 11/20/94 28/8/95 19/7/96
f 29/14/97 28/12/98 11/16/99 14/21/100
f 30/36/101 29/14/102 14/21/103 17/37/104
f 3/24/105 24/6/106 27/30/107 18/31/108
f 17/33/109 2/3/110 21/2/111 30/22/112
