# This file uses centimeters as units for non-parametric coordinates.

mtllib Deco_Skull.mtl
g default
v 30.186356 5.063385 2.306229
v 31.592616 5.414435 3.518176
v 32.998849 5.063385 2.306229
v 29.394324 6.935922 1.763835
v 31.592616 7.375906 3.282812
v 33.790884 6.935922 1.763835
v 29.599801 8.595968 1.282989
v 31.592616 9.255977 1.647738
v 33.585411 8.595968 1.282989
v 28.953873 8.146147 -0.498541
v 31.592616 9.523576 -0.897524
v 34.231342 8.146147 -0.498541
v 29.880526 8.026116 -2.365965
v 31.592616 7.792901 -3.819211
v 33.304696 8.026116 -2.365965
v 29.488656 5.833783 -2.041136
v 31.592616 5.393799 -3.560114
v 33.696550 5.833783 -2.041136
v 29.660430 4.051579 -1.186880
v 31.592616 3.674547 -2.488527
v 33.524782 4.051579 -1.186880
v 29.160466 4.552477 0.542394
v 31.592616 3.982920 -0.376922
v 34.024788 4.552477 0.542394
v 34.604120 6.425013 -0.000001
v 28.581090 6.425013 -0.000001
v 29.899041 9.109077 -0.777461
v 33.286191 9.109077 -0.777461
v 30.027931 3.936392 -0.226659
v 33.157292 3.936392 -0.226659
v 30.380464 3.891863 2.645570
v 30.056515 3.279659 0.911076
v 31.592616 3.821185 0.754219
v 31.592616 4.611954 3.484212
v 32.804746 3.891863 2.645570
v 33.128694 3.279659 0.911076
v 33.233109 4.062796 0.684234
v 29.952122 4.062796 0.684234
vt 0.130584 0.101988
vt 0.177273 0.104532
vt 0.177273 0.169782
vt 0.104288 0.166593
vt 0.223960 0.101988
vt 0.250256 0.166593
vt 0.177273 0.242589
vt 0.111110 0.223867
vt 0.243434 0.223867
vt 0.440984 0.245248
vt 0.177273 0.269794
vt 0.121045 0.255493
vt 0.440369 0.240096
vt 0.384093 0.253319
vt 0.384093 0.269550
vt 0.327202 0.245248
vt 0.327817 0.240096
vt 0.296411 0.209376
vt 0.384093 0.202110
vt 0.454005 0.181783
vt 0.314181 0.181783
vt 0.384093 0.135291
vt 0.448297 0.117872
vt 0.319889 0.117872
vt 0.384093 0.099192
vt 0.233500 0.255493
vt 0.264880 0.222271
vt 0.126273 0.054370
vt 0.137029 0.061569
vt 0.122808 0.081390
vt 0.228271 0.054370
vt 0.217516 0.061569
vt 0.436086 0.094853
vt 0.332100 0.094853
vt 0.303274 0.094731
vt 0.177273 0.078786
vt 0.284024 0.154469
vt 0.177273 0.073054
vt 0.258022 0.098284
vt 0.464911 0.094731
vt 0.484163 0.154469
vt 0.471776 0.209376
vt 0.277256 0.162889
vt 0.384093 0.071402
vt 0.435136 0.054126
vt 0.329581 0.079110
vt 0.096524 0.098284
vt 0.333051 0.054126
vt 0.077289 0.162889
vt 0.438605 0.079110
vt 0.089665 0.222271
vt 0.231738 0.081390
vn -0.745808 -0.092076 0.659767
vn 0.000000 0.051283 0.998684
vn -0.000000 0.308574 0.951200
vn -0.756447 0.157706 0.634757
vn 0.745809 -0.092074 0.659766
vn 0.756447 0.157707 0.634756
vn -0.000000 0.836010 0.548714
vn -0.592984 0.642209 0.485735
vn 0.592986 0.642207 0.485734
vn -0.000000 0.976536 -0.215353
vn -0.377922 0.906554 -0.187975
vn 0.377924 0.906553 -0.187975
vn 0.952246 0.269140 -0.144192
vn -0.637075 0.381167 -0.669960
vn -0.000000 0.316078 -0.948733
vn 0.637078 0.381167 -0.669958
vn -0.000000 -0.276669 -0.960965
vn -0.774939 -0.176407 -0.606919
vn 0.774940 -0.176406 -0.606918
vn 0.000000 -0.732135 -0.681160
vn -0.673074 -0.622052 -0.400029
vn 0.673075 -0.622049 -0.400032
vn 0.000000 -0.996514 -0.083430
vn -0.133678 -0.989364 -0.057358
vn 0.133680 -0.989363 -0.057359
vn 0.941067 -0.295902 0.163814
vn 0.053004 -0.995015 0.084470
vn -0.096327 -0.851792 0.514947
vn -0.878147 -0.405401 0.253986
vn -0.053004 -0.995015 0.084469
vn 0.096326 -0.851792 0.514948
vn 0.000002 -0.582715 0.812676
vn -0.000000 -0.999439 0.033483
vn 0.999012 -0.043561 0.008813
vn -0.941065 -0.295908 0.163814
vn -0.999012 -0.043564 0.008813
vn -0.952244 0.269145 -0.144194
vn 0.878139 -0.405412 0.253994
s 1
g skull
usemtl lambert2SG
f 1/1/1 2/2/2 5/3/3 4/4/4
f 2/2/2 3/5/5 6/6/6 5/3/3
f 4/4/4 5/3/3 8/7/7 7/8/8
f 5/3/3 6/6/6 9/9/9 8/7/7
f 7/8/8 8/7/7 11/11/10 27/12/11
f 28/26/12 9/9/9 12/27/13
f 13/10/14 27/13/11 11/14/10 14/15/15
f 15/16/16 28/17/12 12/18/13
f 13/10/14 14/15/15 17/19/17 16/20/18
f 14/15/15 15/16/16 18/21/19 17/19/17
f 16/20/18 17/19/17 20/22/20 19/23/21
f 17/19/17 18/21/19 21/24/22 20/22/20
f 19/23/21 20/22/20 23/25/23 29/33/24
f 30/34/25 21/24/22 24/35/26
f 32/28/27 31/29/28 38/30/29
f 36/31/30 35/32/31 34/36/32 33/38/33
f 24/35/26 21/24/22 18/21/19 25/37/34
f 3/5/5 24/39/26 25/43/34 6/6/6
f 25/37/34 18/21/19 15/16/16 12/18/13
f 6/6/6 25/43/34 12/27/13 9/9/9
f 19/23/21 22/40/35 26/41/36 16/20/18
f 22/47/35 1/1/1 4/4/4 26/49/36
f 16/20/18 26/41/36 10/42/37 13/10/14
f 26/49/36 4/4/4 7/8/8 10/51/37
f 10/42/37 27/13/11 13/10/14
f 7/8/8 27/12/11 10/51/37
f 11/14/10 28/17/12 15/16/16 14/15/15
f 8/7/7 9/9/9 28/26/12 11/11/10
f 19/23/21 29/33/24 22/40/35
f 20/22/20 21/24/22 30/34/25 23/25/23
f 29/33/24 23/25/23 33/44/33 32/45/27
f 2/2/2 1/1/1 31/29/28 34/36/32
f 30/34/25 24/35/26 37/46/38 36/48/30
f 24/39/26 3/5/5 35/32/31 37/52/38
f 22/40/35 29/33/24 32/45/27 38/50/29
f 1/1/1 22/47/35 38/30/29 31/29/28
f 23/25/23 30/34/25 36/48/30 33/44/33
f 3/5/5 2/2/2 34/36/32 35/32/31
f 36/31/30 37/52/38 35/32/31
f 32/28/27 33/38/33 34/36/32 31/29/28
