# This file uses centimeters as units for non-parametric coordinates.

mtllib stall_Model.mtl
g default
v -12.744428 0.010515 3.219974
v 12.744428 0.010515 3.219974
v -12.744428 5.957246 3.219974
v 12.744428 5.957246 3.219974
v -12.906764 5.957246 -12.132775
v 12.906764 5.957246 -12.132775
v -12.906764 0.010515 -12.132775
v 12.906764 0.010515 -12.132775
v 12.744425 0.010515 12.872904
v 12.744425 5.957246 12.872904
v -12.744425 0.010515 12.872904
v -12.744425 5.957246 12.872904
v 16.383465 0.010515 -12.132715
v 16.383465 5.957246 -12.132715
v 16.383465 5.957246 12.872904
v 16.383465 0.010515 12.872904
v -16.383465 0.010516 -12.132715
v -16.383465 5.957246 -12.132715
v -16.383465 0.010515 12.872904
v -16.383465 5.957246 12.872904
v 16.383465 5.957246 3.219976
v 16.383465 0.010515 3.219970
v -16.383465 5.957246 3.219976
v -16.383465 0.010515 3.219970
v -15.472813 5.957247 12.457815
v -15.517848 5.957247 11.710704
v -14.682432 5.957247 11.652196
v 14.682432 5.957247 11.652196
v 15.517848 5.957247 11.710704
v 15.472813 5.957247 12.457815
v -14.649472 5.957247 12.497425
v 14.649472 5.957247 12.497425
v -12.744427 5.957246 11.645152
v 12.744427 5.957246 11.645152
v -16.383465 5.957246 11.767514
v 16.383465 5.957246 11.767514
v -15.612993 26.569467 12.407585
v -14.748660 26.569467 12.434275
v -14.801578 26.569467 11.629854
v -15.674064 26.569467 11.708203
v 15.612993 26.569467 12.407584
v 14.748660 26.569467 12.434275
v 15.674064 26.569467 11.708202
v 14.801578 26.569467 11.629854
v -15.256406 0.010516 -12.132746
v -15.174708 0.010515 3.219972
v -15.158136 0.010515 12.872904
v -15.099546 5.957246 12.872904
v -15.123776 5.957247 12.678247
v -15.178011 26.569467 12.634352
v -15.240329 26.569467 11.504852
v -15.097419 5.957247 11.453746
v -15.174708 5.957246 3.219975
v -15.256406 5.957246 -12.132746
v 15.256406 0.010515 -12.132746
v 15.174708 0.010515 3.219972
v 15.158136 0.010515 12.872904
v 15.099546 5.957246 12.872904
v 15.123776 5.957247 12.678247
v 15.178011 26.569467 12.634350
v 15.240329 26.569467 11.504851
v 15.097419 5.957247 11.453746
v 15.174708 5.957246 3.219975
v 15.256406 5.957246 -12.132746
v -12.896847 5.957246 -11.194860
v -12.896847 0.010515 -11.194866
v -15.251414 0.010516 -11.194838
v -16.383465 0.010516 -11.194810
v -16.383465 5.957246 -11.194810
v -15.251414 5.957246 -11.441244
v 12.896847 5.957246 -11.194860
v 12.896847 0.010515 -11.194866
v 15.251414 0.010515 -11.194838
v 16.383465 0.010515 -11.194810
v 16.383465 5.957246 -11.194810
v 15.251414 5.957246 -11.441244
v -12.887560 5.957246 -10.316520
v -12.887560 0.010515 -10.316526
v -15.246740 0.010516 -10.316501
v -16.383465 0.010516 -10.316473
v -16.383465 5.957246 -10.316473
v -15.246740 5.957246 -10.123032
v 12.887560 5.957246 -10.316520
v 12.887560 0.010515 -10.316526
v 15.246740 0.010515 -10.316501
v 16.383465 0.010515 -10.316473
v 16.383465 5.957246 -10.316473
v 15.246740 5.957246 -10.123032
v -14.748945 5.957246 3.219975
v -14.584201 5.957246 -10.316501
v -14.668548 5.957246 -11.194837
v 14.748945 5.957246 3.219975
v 14.584201 5.957246 -10.316501
v 14.668548 5.957246 -11.194837
v -15.617439 5.957246 3.219975
v -15.921965 5.957246 -10.316485
v -15.996900 5.957246 -11.194822
v 15.617439 5.957246 3.219975
v 15.921965 5.957246 -10.316485
v 15.996900 5.957246 -11.194822
v 15.251414 26.569467 -11.441252
v 14.668548 26.569467 -11.194844
v 14.584201 26.569467 -10.316507
v 15.246740 26.569467 -10.123039
v 15.921965 26.569467 -10.316493
v 15.996900 26.569467 -11.194830
v -15.996900 26.569467 -11.194830
v -15.251414 26.569467 -11.441252
v -15.921965 26.569467 -10.316493
v -15.246740 26.569467 -10.123039
v -14.584201 26.569467 -10.316507
v -14.668548 26.569467 -11.194844
v -18.855425 18.788623 21.431551
v -8.275741 18.788623 21.431551
v 0.000000 18.788623 21.431551
v 8.275741 18.788623 21.431551
v 18.855425 18.788623 21.431551
v -16.551481 26.709871 -13.459400
v -8.275741 26.709871 -13.459400
v 0.000000 26.709871 -13.459400
v 8.275741 26.709871 -13.459400
v 16.551481 26.709871 -13.459400
v -18.855425 18.552369 -20.442148
v -8.275741 18.552369 -20.442148
v 0.000000 18.552369 -20.442148
v 8.275741 18.552369 -20.442148
v 18.855425 18.552369 -20.442148
v -16.551481 26.709878 12.617468
v -8.275741 26.709878 12.617468
v 0.000000 26.709878 12.617468
v 8.275741 26.709878 12.617468
v 16.551481 26.709878 12.617468
v -16.551481 26.940423 12.705840
v -8.275741 26.956781 12.712111
v -8.275741 26.950063 -13.569970
v -16.551481 26.928052 -13.559838
v 0.000000 26.956781 12.712111
v 0.000000 26.950063 -13.569970
v 8.275741 26.956781 12.712111
v 8.275741 26.950063 -13.569970
v 16.551481 26.940423 12.705840
v 16.551481 26.928052 -13.559838
v -8.275741 18.724317 -20.643028
v -18.855425 18.724317 -20.643028
v 0.000000 18.724317 -20.643028
v 8.275741 18.724317 -20.643028
v 18.855425 18.724317 -20.643028
v -8.275741 18.985294 21.608297
v -18.855425 18.985294 21.608297
v 0.000000 18.985294 21.608297
v 8.275741 18.985294 21.608297
v 18.855425 18.985294 21.608297
vt 0.394881 0.687098
vt 0.394881 0.635244
vt 0.479051 0.635244
vt 0.479051 0.687098
vt 0.469412 0.687098
vt 0.276848 0.687098
vt 0.276848 0.635244
vt 0.269189 0.687098
vt 0.269189 0.635244
vt 0.261011 0.687098
vt 0.261011 0.635244
vt 0.966970 0.635244
vt 0.966970 0.687098
vt 0.848937 0.687098
vt 0.848937 0.635244
vt 0.974628 0.635244
vt 0.974628 0.687098
vt 0.774405 0.687098
vt 0.764767 0.687098
vt 0.764767 0.635244
vt 0.982807 0.687098
vt 0.982807 0.635244
vt 0.972744 0.563546
vt 0.920891 0.563546
vt 0.920891 0.445513
vt 0.972744 0.445513
vt 0.972744 0.571205
vt 0.920891 0.571205
vt 0.920891 0.579384
vt 0.972744 0.579384
vt 0.972744 0.097567
vt 0.920891 0.097567
vt 0.920891 0.089389
vt 0.972744 0.089389
vt 0.972744 0.105226
vt 0.920891 0.105226
vt 0.920891 0.223260
vt 0.972744 0.223260
vt 0.188254 0.983519
vt 0.178054 0.983562
vt 0.176742 0.734813
vt 0.186450 0.734773
vt 0.207206 0.983330
vt 0.198190 0.983399
vt 0.196880 0.734647
vt 0.205321 0.734581
vt 0.268168 0.988783
vt 0.259152 0.988714
vt 0.261037 0.739966
vt 0.269478 0.740031
vt 0.288304 0.988946
vt 0.278104 0.988903
vt 0.279908 0.740157
vt 0.289616 0.740198
vt 0.350375 0.983928
vt 0.339775 0.983928
vt 0.339775 0.735180
vt 0.350375 0.735180
vt 0.323631 0.983928
vt 0.313031 0.983928
vt 0.313031 0.735180
vt 0.323631 0.735180
vt 0.438458 0.983928
vt 0.427858 0.983928
vt 0.427858 0.735180
vt 0.438458 0.735180
vt 0.411714 0.983928
vt 0.401115 0.983928
vt 0.401115 0.735180
vt 0.411714 0.735180
vt 0.417110 0.269456
vt 0.414127 0.092524
vt 0.415563 0.091918
vt 0.418445 0.270132
vt 0.406930 0.032681
vt 0.408264 0.031495
vt 0.412711 0.316794
vt 0.413882 0.318172
vt 0.615445 0.092209
vt 0.613089 0.269141
vt 0.611750 0.269960
vt 0.614012 0.091747
vt 0.617247 0.317519
vt 0.616060 0.318523
vt 0.622823 0.033377
vt 0.621503 0.031831
vt 0.733036 0.687098
vt 0.733036 0.697803
vt 0.733036 0.771268
vt 0.510782 0.771268
vt 0.510782 0.697803
vt 0.510782 0.687098
vt 0.749934 0.697742
vt 0.749647 0.690372
vt 0.750514 0.771268
vt 0.493303 0.771268
vt 0.493883 0.697742
vt 0.494171 0.690372
vt 0.753571 0.687098
vt 0.753783 0.688795
vt 0.753553 0.699472
vt 0.754227 0.771268
vt 0.749078 0.889301
vt 0.734284 0.889301
vt 0.509534 0.889301
vt 0.494740 0.889301
vt 0.489591 0.771268
vt 0.490265 0.699472
vt 0.490035 0.688795
vt 0.490246 0.687098
vt 0.756826 0.690717
vt 0.757219 0.697232
vt 0.758087 0.771268
vt 0.754855 0.887614
vt 0.749813 0.896960
vt 0.734365 0.896960
vt 0.509453 0.896960
vt 0.494004 0.896960
vt 0.488963 0.887614
vt 0.485730 0.771268
vt 0.486599 0.697232
vt 0.486991 0.690717
vt 0.764767 0.696736
vt 0.764767 0.771268
vt 0.760743 0.889301
vt 0.734451 0.905138
vt 0.509366 0.905138
vt 0.483075 0.889301
vt 0.479051 0.771268
vt 0.479051 0.696736
vt 0.764767 0.889301
vt 0.754939 0.905138
vt 0.754896 0.899108
vt 0.488878 0.905138
vt 0.488922 0.899108
vt 0.479051 0.889301
vt 0.764767 0.896959
vt 0.761396 0.896960
vt 0.764767 0.905138
vt 0.479051 0.905138
vt 0.482422 0.896960
vt 0.479051 0.896960
vt 0.733036 0.635244
vt 0.510782 0.635244
vt 0.510782 0.551074
vt 0.733036 0.551074
vt 0.489735 0.635244
vt 0.489591 0.551074
vt 0.754227 0.551074
vt 0.754082 0.635244
vt 0.479051 0.551074
vt 0.488963 0.433041
vt 0.509534 0.433041
vt 0.764767 0.551074
vt 0.734284 0.433041
vt 0.754855 0.433041
vt 0.479051 0.433041
vt 0.488922 0.425382
vt 0.509453 0.425382
vt 0.764767 0.433041
vt 0.734365 0.425382
vt 0.754896 0.425382
vt 0.479051 0.425383
vt 0.488879 0.417204
vt 0.509367 0.417204
vt 0.764767 0.425383
vt 0.754939 0.417204
vt 0.734451 0.417204
vt 0.479051 0.417204
vt 0.764767 0.417204
vt 0.193670 0.729701
vt 0.207260 0.729158
vt 0.195575 0.724334
vt 0.205263 0.724049
vt 0.270781 0.729717
vt 0.272687 0.735083
vt 0.259097 0.734543
vt 0.261093 0.729435
vt 0.353990 0.728492
vt 0.338222 0.727036
vt 0.341310 0.719184
vt 0.351899 0.719295
vt 0.397498 0.728493
vt 0.399589 0.719296
vt 0.410178 0.719183
vt 0.413267 0.727035
vt 0.465552 0.091869
vt 0.466921 0.270194
vt 0.466961 0.031508
vt 0.514887 0.091869
vt 0.514981 0.270194
vt 0.468750 0.318185
vt 0.514874 0.031508
vt 0.564173 0.091869
vt 0.563076 0.270194
vt 0.514930 0.318185
vt 0.562835 0.031508
vt 0.561152 0.318185
vt 0.679349 0.257182
vt 0.682090 0.080249
vt 0.730727 0.080249
vt 0.729435 0.257182
vt 0.679387 0.032871
vt 0.732945 0.032871
vt 0.778777 0.080249
vt 0.778779 0.257182
vt 0.731286 0.316986
vt 0.673929 0.316986
vt 0.679386 0.031508
vt 0.732947 0.031508
vt 0.778779 0.032871
vt 0.826831 0.080249
vt 0.828121 0.257182
vt 0.778779 0.316986
vt 0.731287 0.318185
vt 0.673935 0.318185
vt 0.778779 0.031508
vt 0.824612 0.032871
vt 0.875466 0.080249
vt 0.878209 0.257182
vt 0.826271 0.316986
vt 0.778779 0.318185
vt 0.824610 0.031508
vt 0.878170 0.032871
vt 0.883628 0.316986
vt 0.826270 0.318185
vt 0.878171 0.031508
vt 0.883622 0.318185
vt 0.920891 0.599872
vt 0.972744 0.599872
vt 0.972744 0.609699
vt 0.920891 0.609699
vt 0.972744 0.068901
vt 0.920891 0.068901
vt 0.920891 0.059073
vt 0.972744 0.059074
vt 0.193978 0.983450
vt 0.191631 0.734710
vt 0.210555 0.734582
vt 0.212279 0.983330
vt 0.217287 0.983330
vt 0.215850 0.734582
vt 0.272380 0.988834
vt 0.274727 0.740095
vt 0.255803 0.739966
vt 0.254079 0.988714
vt 0.249071 0.988714
vt 0.250508 0.739966
vt 0.357409 0.983928
vt 0.357409 0.735180
vt 0.366405 0.983928
vt 0.366405 0.735180
vt 0.331780 0.983928
vt 0.331780 0.735180
vt 0.394081 0.983928
vt 0.385084 0.983928
vt 0.385084 0.735180
vt 0.394081 0.735180
vt 0.419710 0.983928
vt 0.419710 0.735180
vn 0.000000 -0.851719 0.523999
vn -0.000000 0.831237 0.555918
vn 0.000000 0.831237 0.555918
vn 0.000000 -0.851719 0.523999
vn -0.993933 0.109985 -0.000000
vn -0.980522 -0.196407 -0.000000
vn -0.971846 -0.198896 0.126314
vn -0.991590 0.011809 0.128880
vn -0.997859 0.065396 -0.000000
vn 0.981177 -0.193113 0.000000
vn 0.994912 0.100752 0.000000
vn 0.993933 0.109985 -0.000000
vn 0.980522 -0.196407 0.000000
vn -0.000000 1.000000 -0.000000
vn -0.240113 0.857686 -0.454665
vn 0.240113 0.857686 -0.454665
vn 0.000000 1.000000 -0.000000
vn 0.231714 -0.868215 -0.438761
vn -0.231714 -0.868215 -0.438761
vn 0.000017 -0.155828 -0.987784
vn -0.365441 -0.145518 -0.919390
vn -0.368592 0.064992 -0.927317
vn 0.000017 0.100448 -0.994942
vn -0.000000 1.000000 -0.000000
vn -0.534977 0.794047 0.288597
vn -0.954609 0.297690 -0.010094
vn 0.000000 -0.851944 0.523633
vn 0.000000 0.037031 0.999314
vn -0.926926 -0.375117 -0.009801
vn 0.000000 -1.000000 0.000000
vn 0.000000 -1.000000 -0.000000
vn -0.000000 -1.000000 -0.000000
vn 0.000000 -0.851944 0.523633
vn -0.000017 0.100448 -0.994942
vn -0.000017 -0.155828 -0.987784
vn -0.634999 -0.120614 -0.763039
vn -0.637973 0.072767 -0.766613
vn -0.000000 0.037031 0.999314
vn -0.837050 0.436797 -0.329479
vn -0.902653 0.061090 0.426012
vn 0.976923 0.213343 -0.010329
vn 0.929762 -0.368029 -0.009831
vn 0.365441 -0.145518 -0.919390
vn 0.368592 0.064992 -0.927317
vn -0.657600 0.685670 -0.312119
vn -0.918279 0.141482 0.369792
vn 0.997859 0.065396 -0.000000
vn 0.991590 0.011808 0.128880
vn 0.971846 -0.198896 0.126314
vn -0.998688 0.051201 0.000000
vn -0.857865 0.050013 -0.511436
vn -0.982363 -0.186982 0.000000
vn -0.000000 -1.000000 -0.000000
vn -0.905510 0.019966 0.423855
vn -0.039981 0.035365 0.998574
vn -0.081747 0.035935 -0.996005
vn -0.931221 0.016869 -0.364063
vn 0.038395 0.059047 0.997517
vn -0.038394 0.059047 0.997517
vn -0.927240 0.028678 0.373368
vn 0.039983 0.035365 0.998574
vn 0.081747 0.035935 -0.996005
vn -0.901921 0.027930 -0.430996
vn 0.657600 0.685670 -0.312119
vn 0.918279 0.141482 0.369792
vn -0.000000 1.000000 -0.000000
vn 0.837050 0.436797 -0.329479
vn 0.902652 0.061090 0.426013
vn 0.901921 0.027930 -0.430996
vn 0.927240 0.028678 0.373368
vn -0.068950 0.469253 -0.880368
vn 0.931221 0.016869 -0.364064
vn 0.905510 0.019966 0.423856
vn 0.068950 0.469252 -0.880368
vn 0.000000 1.000000 -0.000000
vn -0.000000 1.000000 -0.000000
vn -0.000011 0.093947 -0.995577
vn 0.852665 0.130832 -0.505812
vn 0.000000 1.000000 -0.000000
vn 0.000000 1.000000 -0.000000
vn 0.717809 0.482017 0.502403
vn -0.000009 0.534904 0.844913
vn 0.637973 0.072767 -0.766613
vn 0.634999 -0.120614 -0.763039
vn 0.954609 0.297690 -0.010094
vn 0.926926 -0.375117 -0.009801
vn -0.000000 -1.000000 -0.000000
vn -0.981177 -0.193113 -0.000000
vn -0.994912 0.100752 0.000000
vn -0.717809 0.482017 0.502403
vn -0.929762 -0.368029 -0.009831
vn -0.976923 0.213343 -0.010329
vn 0.000000 -1.000000 0.000000
vn 0.982363 -0.186982 0.000000
vn 0.998688 0.051201 0.000000
vn 0.000011 0.093947 -0.995577
vn 0.857865 0.050013 -0.511436
vn -0.852665 0.130832 -0.505812
vn 0.534977 0.794047 0.288597
vn 0.000009 0.534904 0.844913
vn 0.000011 0.082174 -0.996618
vn -0.857871 0.071266 -0.508900
vn -0.878234 0.065175 0.473769
vn -0.000010 0.086819 0.996224
vn 0.817440 0.066725 0.572136
vn 0.857277 0.062201 -0.511085
vn -0.000011 0.082174 -0.996618
vn -0.857277 0.062201 -0.511085
vn -0.817440 0.066725 0.572136
vn 0.000010 0.086819 0.996224
vn 0.878234 0.065175 0.473769
vn 0.857871 0.071266 -0.508900
vn -0.022884 0.965535 0.259267
vn -0.000988 0.972866 0.231367
vn -0.001077 0.967828 -0.251609
vn -0.022237 0.958034 -0.285790
vn 0.000000 0.975314 0.220822
vn 0.000000 0.970866 -0.239622
vn 0.000988 0.972866 0.231367
vn 0.001077 0.967828 -0.251609
vn 0.022884 0.965535 0.259267
vn 0.022237 0.958034 -0.285790
vn -0.000622 0.632548 -0.774521
vn -0.030506 0.633146 -0.773431
vn 0.000000 0.633312 -0.773897
vn 0.000622 0.632548 -0.774521
vn 0.030506 0.633146 -0.773431
vn -0.000462 0.729094 0.684414
vn -0.030593 0.729704 0.683079
vn 0.000000 0.729801 0.683660
vn 0.000462 0.729094 0.684414
vn 0.030593 0.729704 0.683079
vn -0.033909 -0.964029 -0.263624
vn -0.035572 -0.956483 0.289610
vn 0.000000 -0.967799 0.251726
vn 0.000000 -0.972688 -0.232117
vn 0.000000 -0.970880 0.239566
vn 0.000000 -0.975184 -0.221395
vn 0.000000 -0.967799 0.251726
vn 0.000000 -0.972688 -0.232117
vn 0.035572 -0.956483 0.289610
vn 0.033909 -0.964029 -0.263624
vn -0.029664 -0.669184 0.742504
vn 0.000000 -0.669981 0.742378
vn 0.000000 -0.668791 0.743450
vn 0.000000 -0.669981 0.742378
vn 0.029664 -0.669184 0.742504
vn 0.000000 -0.759444 -0.650573
vn -0.029973 -0.758403 -0.651096
vn 0.000000 -0.758499 -0.651674
vn 0.000000 -0.759444 -0.650573
vn 0.029973 -0.758403 -0.651096
s 1
g pCube2
usemtl lambert2SG
f 9/143/1 10/87/2 12/92/3 11/144/4
f 23/1/5 24/2/6 19/3/7 20/4/8 35/5/9
f 86/12/10 87/13/11 21/14/12 22/15/13
f 10/87/2 34/88/14 4/89/15 3/90/16 33/91/17 12/92/3
f 9/143/1 11/144/4 1/145/18 2/146/19
f 55/229/20 8/29/21 6/30/22 64/230/23
f 92/95/24 93/103/25 83/104/26 4/89/15
f 10/87/2 9/143/1 57/150/27 58/99/28
f 84/155/29 85/156/30 56/149/31 2/146/19
f 24/151/6 46/148/32 47/147/33 19/3/7
f 54/233/34 45/234/35 17/235/36 18/236/37
f 47/147/33 48/110/38 20/4/8 19/3/7
f 26/121/39 35/130/9 20/4/8 25/122/40
f 83/23/26 84/24/29 2/25/19 4/26/15
f 65/31/41 66/32/42 7/33/43 5/34/44
f 3/38/16 4/26/15 2/25/19 1/37/18
f 28/93/45 34/88/14 10/87/2 32/94/46
f 22/15/13 21/14/12 36/18/47 15/19/48 16/20/49
f 18/140/37 69/142/50 97/141/51
f 18/10/37 17/11/36 68/9/52 69/8/50
f 56/149/31 57/150/27 9/143/1 2/146/19
f 17/169/36 45/164/35 67/158/53 68/163/52
f 37/45/54 50/171/55 51/172/56 40/46/57
f 58/99/28 59/100/58 32/94/46 10/87/2
f 48/110/38 49/109/59 25/122/40 20/4/8
f 42/175/60 60/176/61 61/177/62 44/178/63
f 33/91/17 27/97/64 31/98/65 12/92/3
f 28/93/45 92/95/24 4/89/15 34/88/14
f 26/121/39 95/120/66 23/129/5 35/130/9
f 36/123/47 29/112/67 30/111/68 15/19/48
f 25/44/40 49/237/59 50/238/55 37/45/54
f 31/39/65 27/40/64 39/41/69 38/42/70
f 51/239/56 52/240/71 26/43/39 40/46/57
f 26/43/39 25/44/40 37/45/54 40/46/57
f 32/52/46 59/243/58 60/244/61 42/53/60
f 30/47/68 29/48/67 43/49/72 41/50/73
f 61/245/62 62/246/74 28/247/45 44/248/63
f 28/51/45 32/52/46 42/53/60 44/54/63
f 66/159/42 67/158/53 45/164/35 7/165/43
f 47/147/33 46/148/32 1/145/18 11/144/4
f 11/144/4 12/92/3 48/110/38 47/147/33
f 12/92/3 31/98/65 49/109/59 48/110/38
f 50/238/55 49/237/59 31/39/65 38/42/70
f 51/172/56 50/171/55 38/173/70 39/174/69
f 27/241/64 52/240/71 51/239/56 39/242/69
f 27/97/64 89/96/75 53/107/76 52/108/71
f 5/127/44 54/134/34 70/135/77 91/118/78
f 7/33/43 45/234/35 54/233/34 5/34/44
f 22/154/13 56/149/31 85/156/30 86/160/10
f 16/20/49 57/150/27 56/149/31 22/154/13
f 58/99/28 57/150/27 16/20/49 15/19/48
f 15/19/48 30/111/68 59/100/58 58/99/28
f 60/244/61 59/243/58 30/47/68 41/50/73
f 61/177/62 60/176/61 41/50/73 43/49/72
f 29/48/67 62/246/74 61/245/62 43/49/72
f 29/112/67 98/113/79 63/102/80 62/101/74
f 98/113/79 99/125/81 88/114/82 63/102/80
f 55/229/20 64/230/23 14/231/83 13/232/84
f 77/35/85 78/36/86 66/32/42 65/31/41
f 78/153/86 79/152/87 67/158/53 66/159/42
f 68/163/52 67/158/53 79/152/87 80/157/88
f 69/8/50 68/9/52 80/7/88 81/6/89
f 96/128/90 97/141/51 69/142/50 81/136/89
f 8/29/21 72/28/91 71/27/92 6/30/22
f 55/167/20 73/162/93 72/161/91 8/168/21
f 74/166/94 73/162/93 55/167/20 13/170/84
f 14/21/83 75/17/95 74/16/94 13/22/84
f 14/139/83 64/132/23 76/133/96 100/138/97
f 94/115/98 6/126/22 71/116/92
f 1/37/18 78/36/86 77/35/85 3/38/16
f 46/148/32 79/152/87 78/153/86 1/145/18
f 80/157/88 79/152/87 46/148/32 24/151/6
f 81/6/89 80/7/88 24/2/6 23/1/5
f 95/120/66 96/128/90 81/136/89 23/129/5
f 89/96/75 90/106/99 82/119/100 53/107/76
f 71/27/92 72/28/91 84/24/29 83/23/26
f 72/161/91 73/162/93 85/156/30 84/155/29
f 86/160/10 85/156/30 73/162/93 74/166/94
f 74/16/94 75/17/95 87/13/11 86/12/10
f 83/104/26 93/103/25 94/115/98 71/116/92
f 3/90/16 89/96/75 27/97/64 33/91/17
f 77/105/85 90/106/99 89/96/75 3/90/16
f 65/117/41 91/118/78 90/106/99 77/105/85
f 62/101/74 63/102/80 92/95/24 28/93/45
f 63/102/80 88/114/82 93/103/25 92/95/24
f 101/179/101 102/58/102 103/57/103 104/180/104 105/181/105 106/182/106
f 52/108/71 53/107/76 95/120/66 26/121/39
f 82/119/100 96/128/90 95/120/66 53/107/76
f 108/183/107 107/184/108 109/185/109 110/186/110 111/70/111 112/69/112
f 18/140/37 97/141/51 70/135/77 54/134/34
f 21/124/12 98/113/79 29/112/67 36/123/47
f 87/131/11 99/125/81 98/113/79 21/124/12
f 75/137/95 100/138/97 99/125/81 87/131/11
f 14/139/83 100/138/97 75/137/95
f 5/127/44 91/118/78 65/117/41
f 64/132/23 6/126/22 94/115/98 76/133/96
f 76/249/96 94/55/98 102/58/102 101/250/101
f 94/55/98 93/56/25 103/57/103 102/58/102
f 93/56/25 88/253/82 104/254/104 103/57/103
f 88/253/82 99/59/81 105/62/105 104/254/104
f 99/59/81 100/60/97 106/61/106 105/62/105
f 100/251/97 76/249/96 101/250/101 106/252/106
f 70/255/77 97/256/51 107/257/108 108/258/107
f 97/63/51 96/64/90 109/65/109 107/66/108
f 96/64/90 82/259/100 110/260/110 109/65/109
f 82/259/100 90/67/99 111/70/111 110/260/110
f 90/67/99 91/68/78 112/69/112 111/70/111
f 91/68/78 70/255/77 108/258/107 112/69/112
s 12
f 133/73/113 134/187/114 135/188/115 136/74/116
f 134/187/114 137/190/117 138/191/118 135/188/115
f 137/190/117 139/194/119 140/195/120 138/191/118
f 139/194/119 141/82/121 142/81/122 140/195/120
f 136/74/116 135/188/115 143/192/123 144/78/124
f 135/188/115 138/191/118 145/196/125 143/192/123
f 138/191/118 140/195/120 146/198/126 145/196/125
f 140/195/120 142/81/122 147/84/127 146/198/126
f 148/189/128 134/187/114 133/73/113 149/76/129
f 150/193/130 137/190/117 134/187/114 148/189/128
f 151/197/131 139/194/119 137/190/117 150/193/130
f 152/86/132 141/82/121 139/194/119 151/197/131
f 128/199/133 118/200/134 119/201/135 129/202/136
f 129/202/136 119/201/135 120/205/137 130/206/138
f 130/206/138 120/205/137 121/212/139 131/213/140
f 131/213/140 121/212/139 122/219/141 132/220/142
f 118/200/134 123/203/143 124/204/144 119/201/135
f 119/201/135 124/204/144 125/211/145 120/205/137
f 120/205/137 125/211/145 126/218/146 121/212/139
f 121/212/139 126/218/146 127/224/147 122/219/141
f 114/207/148 113/208/149 128/199/133 129/202/136
f 115/214/150 114/207/148 129/202/136 130/206/138
f 116/221/151 115/214/150 130/206/138 131/213/140
f 117/225/152 116/221/151 131/213/140 132/220/142
f 118/71/134 128/72/133 133/73/113 136/74/116
f 132/79/142 122/80/141 142/81/122 141/82/121
f 124/204/144 123/203/143 144/209/124 143/210/123
f 123/77/143 118/71/134 136/74/116 144/78/124
f 125/211/145 124/204/144 143/210/123 145/217/125
f 126/218/146 125/211/145 145/217/125 146/223/126
f 122/80/141 127/83/147 147/84/127 142/81/122
f 127/224/147 126/218/146 146/223/126 147/227/127
f 128/72/133 113/75/149 149/76/129 133/73/113
f 113/208/149 114/207/148 148/215/128 149/216/129
f 114/207/148 115/214/150 150/222/130 148/215/128
f 115/214/150 116/221/151 151/226/131 150/222/130
f 117/85/152 132/79/142 141/82/121 152/86/132
f 116/221/151 117/225/152 152/228/132 151/226/131
