# This file uses centimeters as units for non-parametric coordinates.

mtllib fang2.mtl
g default
v -1.604535 0.225317 4.635646
v 3.472476 0.225317 4.635646
v -2.663413 6.278018 3.656269
v 0.303416 6.278018 3.656269
v -0.790581 13.102739 1.165177
v 0.788126 13.102739 1.165177
v -1.447253 13.102739 -0.547312
v 3.084258 19.717406 -0.460183
v 2.258797 13.102739 -0.547312
v -0.790581 13.102739 -2.564575
v 0.255627 13.102739 -2.564575
v -2.663413 6.278018 -3.696308
v -0.229085 6.278018 -3.696308
v -0.545347 0.225317 -5.243575
v 2.939975 0.225317 -5.243575
v -3.144807 0.225316 -0.511925
v 5.826755 0.225316 -0.511925
v 2.350013 6.278018 0.090160
v -3.896003 6.278018 0.090160
vt 0.375000 0.000000
vt 0.625000 0.000000
vt 0.375000 0.125000
vt 0.625000 0.125000
vt 0.375000 0.250000
vt 0.625000 0.250000
vt 0.375000 0.375000
vt 0.500000 0.375000
vt 0.625000 0.375000
vt 0.375000 0.500000
vt 0.625000 0.500000
vt 0.375000 0.625000
vt 0.625000 0.625000
vt 0.375000 0.750000
vt 0.625000 0.750000
vt 0.375000 0.875000
vt 0.625000 0.875000
vt 0.375000 1.000000
vt 0.625000 1.000000
vt 0.875000 0.000000
vt 0.750000 0.000000
vt 0.875000 0.125000
vt 0.750000 0.125000
vt 0.875000 0.250000
vt 0.750000 0.250000
vt 0.125000 0.000000
vt 0.250000 0.000000
vt 0.125000 0.125000
vt 0.250000 0.125000
vt 0.125000 0.250000
vt 0.250000 0.250000
vn 0.000000 0.224511 0.974472
vn 0.000000 0.231554 0.972822
vn 0.000000 0.159731 0.987161
vn 0.000000 0.159731 0.987161
vn 0.000000 0.342883 0.939378
vn 0.000000 0.342883 0.939378
vn -0.607262 0.506202 0.612366
vn 0.540936 0.813766 -0.212540
vn -0.824934 0.565206 -0.005121
vn 0.391651 0.089076 0.915792
vn 0.981728 -0.120573 -0.147213
vn -0.682958 0.552198 -0.478168
vn 0.458928 0.085108 -0.884388
vn 0.000000 0.213716 -0.976896
vn 0.000000 0.163594 -0.986528
vn 0.000000 0.163594 -0.986528
vn 0.000000 0.218958 -0.975734
vn 0.000000 0.247668 -0.968845
vn 0.000000 0.247668 -0.968845
vn 0.000000 -1.000000 -0.000000
vn 0.000000 -1.000000 -0.000000
vn 0.000000 -1.000000 -0.000000
vn 0.000000 -1.000000 -0.000000
vn 0.000000 -1.000000 0.000000
vn 0.000000 -1.000000 0.000000
vn 0.779929 0.301317 -0.548560
vn 0.926769 0.372819 -0.045872
vn 0.849582 0.522628 -0.071212
vn 0.734972 0.487232 -0.471614
vn 0.821710 0.331716 0.463419
vn 0.797071 0.450134 0.402564
vn 0.784858 -0.000187 -0.619676
vn 0.990413 0.055660 -0.126428
vn 0.827793 0.102563 0.551580
vn -0.998021 0.061075 -0.014949
vn -0.927275 0.024415 -0.373584
vn -0.902742 -0.141863 -0.406117
vn -0.985560 -0.146685 -0.084588
vn -0.944593 -0.131873 0.300588
vn -0.948357 0.040857 0.314561
vn -0.940701 0.338938 -0.014236
vn -0.907662 0.298076 -0.295467
vn -0.881470 0.351396 0.315487
s 1
g pasted__smallfang group
usemtl initialShadingGroup
f 4/4/1 3/3/2 1/1/3 2/2/4
f 5/5/5 3/3/2 4/4/1 6/6/6
s 2
f 5/5/7 8/8/8 7/7/9
f 8/8/8 6/6/10 9/9/11
f 10/10/12 8/8/8 11/11/13
s 3
f 12/12/14 10/10/15 11/11/16 13/13/17
f 12/12/14 13/13/17 15/15/18 14/14/19
s 4
f 16/16/20 14/14/21 15/15/22 17/17/23
f 2/19/24 1/18/25 16/16/20 17/17/23
s 5
f 13/22/26 18/23/27 17/21/28 15/20/29
f 18/23/27 4/4/30 2/2/31 17/21/28
f 18/23/27 13/22/26 11/24/32 9/25/33
f 4/4/30 18/23/27 9/25/33 6/6/34
s 6
f 19/29/35 12/28/36 14/26/37 16/27/38
f 1/1/39 3/3/40 19/29/35 16/27/38
f 12/28/36 19/29/35 7/31/41 10/30/42
f 19/29/35 3/3/40 5/5/43 7/31/41
s 2
f 8/8/8 5/5/7 6/6/10
f 7/7/9 8/8/8 10/10/12
f 8/8/8 9/9/11 11/11/13
