# This file uses centimeters as units for non-parametric coordinates.

mtllib poledevill.mtl
g default
v 2.037103 0.163506 -3.187891
v -1.643959 0.163506 -3.187891
v -3.484491 0.163506 -0.000000
v -1.643960 0.163506 3.187891
v 2.037103 0.163506 3.187891
v 3.877634 0.163506 0.000000
v 2.037103 36.605369 -3.187891
v -1.643959 36.605369 -3.187891
v -3.484491 36.605369 -0.000000
v -1.643960 36.605369 3.187891
v 2.037103 36.605369 3.187891
v 3.877634 36.605369 0.000000
v 0.196571 0.163506 0.000000
v 0.196571 36.605369 0.000000
vt 0.578125 0.020934
vt 0.421875 0.020934
vt 0.343750 0.156250
vt 0.421875 0.291566
vt 0.578125 0.291566
vt 0.656250 0.156250
vt 0.375000 0.312500
vt 0.416667 0.312500
vt 0.458333 0.312500
vt 0.500000 0.312500
vt 0.541667 0.312500
vt 0.583333 0.312500
vt 0.625000 0.312500
vt 0.375000 0.688440
vt 0.416667 0.688440
vt 0.458333 0.688440
vt 0.500000 0.688440
vt 0.541667 0.688440
vt 0.583333 0.688440
vt 0.625000 0.688440
vt 0.578125 0.708434
vt 0.421875 0.708434
vt 0.343750 0.843750
vt 0.421875 0.979066
vt 0.578125 0.979066
vt 0.656250 0.843750
vt 0.500000 0.150000
vt 0.500000 0.837500
vn 0.000000 0.000000 -1.000000
vn 0.000000 0.000000 -1.000000
vn 0.000000 0.000000 -1.000000
vn 0.000000 0.000000 -1.000000
vn -0.866025 0.000000 -0.500001
vn -0.866025 0.000000 -0.500001
vn -0.866025 0.000000 -0.500001
vn -0.866025 0.000000 -0.500001
vn -0.866025 0.000000 0.500000
vn -0.866025 0.000000 0.500000
vn -0.866025 0.000000 0.500000
vn -0.866025 0.000000 0.500000
vn 0.000000 0.000000 1.000000
vn 0.000000 0.000000 1.000000
vn 0.000000 0.000000 1.000000
vn 0.000000 0.000000 1.000000
vn 0.866025 0.000000 0.500000
vn 0.866025 0.000000 0.500000
vn 0.866025 0.000000 0.500000
vn 0.866025 0.000000 0.500000
vn 0.866025 0.000000 -0.500000
vn 0.866025 0.000000 -0.500000
vn 0.866025 0.000000 -0.500000
vn 0.866025 0.000000 -0.500000
vn 0.000000 -1.000000 0.000000
vn 0.000000 -1.000000 0.000000
vn 0.000000 -1.000000 0.000000
vn 0.000000 -1.000000 0.000000
vn 0.000000 -1.000000 0.000000
vn 0.000000 -1.000000 0.000000
vn 0.000000 -1.000000 0.000000
vn 0.000000 1.000000 0.000000
vn 0.000000 1.000000 -0.000001
vn 0.000000 1.000000 0.000000
vn 0.000000 1.000000 -0.000001
vn 0.000000 1.000000 0.000001
vn 0.000000 1.000000 0.000001
vn 0.000000 1.000000 0.000000
s off
g pasted__pole pasted__poledevil1 group
usemtl initialShadingGroup
f 1/7/1 2/8/2 8/15/3 7/14/4
f 2/8/5 3/9/6 9/16/7 8/15/8
f 3/9/9 4/10/10 10/17/11 9/16/12
f 4/10/13 5/11/14 11/18/15 10/17/16
f 5/11/17 6/12/18 12/19/19 11/18/20
f 6/12/21 1/13/22 7/20/23 12/19/24
s 1
f 2/2/25 1/1/26 13/27/27
f 3/3/28 2/2/25 13/27/27
f 4/4/29 3/3/28 13/27/27
f 5/5/30 4/4/29 13/27/27
f 6/6/31 5/5/30 13/27/27
f 1/1/26 6/6/31 13/27/27
s 2
f 7/25/32 8/24/33 14/28/34
f 8/24/33 9/23/35 14/28/34
f 9/23/35 10/22/36 14/28/34
f 10/22/36 11/21/37 14/28/34
f 11/21/37 12/26/38 14/28/34
f 12/26/38 7/25/32 14/28/34
g default
v -5.297160 24.084488 3.186363
v 6.132574 24.084488 3.186363
v 6.132574 22.108233 3.186363
v -5.297160 22.108233 3.186363
v 0.417827 21.378347 3.177792
v 0.417827 23.354602 3.177792
v -5.297160 23.066683 4.215863
v 1.152138 22.336797 4.207292
v 6.132574 23.066683 4.215863
v 9.192435 24.696835 2.829239
v 6.132574 23.066683 2.112391
v 0.417827 22.336797 2.103821
v -5.297160 23.066683 2.112391
v -8.357021 24.696834 2.829239
vt 0.252643 0.250000
vt 0.375000 0.372357
vt 0.625000 0.372357
vt 0.747357 0.250000
vt 0.625000 0.877643
vt 0.747357 0.000000
vt 0.252643 0.000000
vt 0.375000 0.877643
vt 0.500004 0.877643
vt 0.500004 0.372357
vt 0.375000 0.121246
vt 0.500004 0.121246
vt 0.625000 0.121246
vt 0.747357 0.121246
vt 0.625000 0.628754
vt 0.875000 0.121246
vt 0.500004 0.628754
vt 0.125000 0.121246
vt 0.375000 0.628754
vt 0.252643 0.121246
vn -0.130764 0.991373 -0.008932
vn -0.006051 0.059100 -0.998234
vn 0.000000 -0.059482 -0.998229
vn 0.017650 0.999841 0.002368
vn 0.130599 -0.990091 -0.051621
vn -0.019725 -0.999690 0.015215
vn -0.190764 0.980521 0.046781
vn 0.969518 0.223930 -0.099447
vn 0.335101 -0.226871 -0.914460
vn -0.335101 -0.226871 -0.914460
vn -0.969518 0.223932 -0.099447
vn 0.190764 0.980521 0.046782
vn 0.001017 -0.059597 0.998222
vn -0.010629 0.066156 0.997753
vn 0.496876 -0.218190 0.839945
vn -0.496876 -0.218190 0.839945
vn -0.122688 -0.991149 0.050706
vn 0.006051 0.059098 -0.998234
vn 0.122847 0.992389 0.008527
vn 0.007609 0.051678 0.998635
vn 0.648138 -0.760382 0.041682
vn -0.648137 -0.760382 0.041682
s 1
g pasted__poledevil1 group pasted__bone
usemtl initialShadingGroup
f 16/31/39 25/43/40 26/45/41 20/38/42
f 17/33/43 19/37/44 26/45/41 25/43/40
s 2
f 16/32/45 24/42/46 25/44/47
s 3
f 27/46/48 28/48/49 15/29/50
s 1
f 16/31/39 20/38/42 22/40/51 23/41/52
s 2
f 23/41/53 24/42/46 16/32/45
s 3
f 15/29/50 28/48/49 21/39/54
s 1
f 19/37/44 18/36/55 27/47/56 26/45/41
f 20/38/42 26/45/41 27/47/56 15/30/57
f 20/38/42 15/30/57 21/39/58 22/40/51
f 19/37/44 22/40/51 21/39/58 18/36/55
f 17/33/43 23/41/52 22/40/51 19/37/44
s 2
f 17/34/59 24/42/46 23/41/53
f 25/44/47 24/42/46 17/34/59
s 3
f 18/35/60 28/48/49 27/46/48
f 21/39/54 28/48/49 18/35/60
g default
v -2.382618 15.236319 4.440211
v -1.485792 16.614397 4.440211
v 0.313447 8.926563 4.440211
v 1.661480 14.357934 4.440211
v 2.125728 12.895470 4.440211
v -2.586981 17.364979 4.440211
v -1.767572 18.743066 4.440211
v 0.313447 17.364979 4.440211
v 1.661480 16.486593 4.440211
v 2.500621 15.024130 4.440211
v -2.909636 19.493638 4.440211
v -1.815212 20.871724 4.440211
v 0.313447 19.493638 4.440211
v 1.661480 18.615253 4.440211
v 3.009513 17.152790 4.440211
v -3.338819 21.622298 4.440211
v -1.815212 23.377783 4.440211
v 0.313447 21.622298 4.440211
v 2.027774 20.743914 4.440211
v 3.335181 19.281449 4.440211
v -4.104221 24.037985 4.023420
v -1.815212 24.004875 4.440211
v 0.313447 23.747564 4.440211
v 2.442106 24.004875 4.440211
v 4.731116 24.037985 4.023420
v -2.382618 15.236319 4.648700
v -1.485792 16.614397 4.648700
v -1.767572 18.743066 4.648700
v -2.586981 17.364979 4.648700
v 0.313447 8.926563 4.648700
v 0.313447 17.364979 4.648700
v 1.661480 14.357934 4.648700
v 1.661480 16.486593 4.648700
v 2.125728 12.895470 4.648700
v 2.500621 15.024130 4.648700
v -1.815212 20.871724 4.648700
v -2.909636 19.493638 4.648700
v 0.313447 19.493638 4.648700
v 1.661480 18.615253 4.648700
v 3.009513 17.152790 4.648700
v -1.815212 23.377782 4.648700
v -3.338819 21.622298 4.648700
v 0.313447 21.622298 4.648700
v 2.027774 20.743914 4.648700
v 3.335181 19.281449 4.648700
v -1.815212 24.004875 4.648700
v -4.104221 24.037985 4.231910
v 0.313447 23.747564 4.648700
v 2.442106 24.004875 4.648700
v 4.731116 24.037985 4.231910
vt 0.000000 0.000000
vt 0.250000 0.000000
vt 0.500000 0.000000
vt 0.750000 0.000000
vt 1.000000 0.000000
vt 0.000000 0.250000
vt 0.250000 0.250000
vt 0.500000 0.250000
vt 0.750000 0.250000
vt 1.000000 0.250000
vt 0.000000 0.500000
vt 0.250000 0.500000
vt 0.500000 0.500000
vt 0.750000 0.500000
vt 1.000000 0.500000
vt 0.000000 0.750000
vt 0.250000 0.750000
vt 0.500000 0.750000
vt 0.750000 0.750000
vt 1.000000 0.750000
vt 0.000000 1.000000
vt 0.250000 1.000000
vt 0.500000 1.000000
vt 0.750000 1.000000
vt 1.000000 1.000000
vt 0.000000 0.000000
vt 0.250000 0.000000
vt 0.250000 0.250000
vt 0.000000 0.250000
vt 0.500000 0.000000
vt 0.500000 0.250000
vt 0.750000 0.000000
vt 0.750000 0.250000
vt 1.000000 0.000000
vt 1.000000 0.250000
vt 0.250000 0.500000
vt 0.000000 0.500000
vt 0.500000 0.500000
vt 0.750000 0.500000
vt 1.000000 0.500000
vt 0.250000 0.750000
vt 0.000000 0.750000
vt 0.500000 0.750000
vt 0.750000 0.750000
vt 1.000000 0.750000
vt 0.250000 1.000000
vt 0.000000 1.000000
vt 0.500000 1.000000
vt 0.750000 1.000000
vt 1.000000 1.000000
vt 0.000000 0.000000
vt 0.250000 0.000000
vt 0.000000 0.250000
vt 0.500000 0.000000
vt 0.750000 0.000000
vt 1.000000 0.000000
vt 1.000000 0.250000
vt 0.000000 0.500000
vt 1.000000 0.500000
vt 0.000000 0.750000
vt 1.000000 0.750000
vt 0.250000 1.000000
vt 0.000000 1.000000
vt 0.500000 1.000000
vt 0.750000 1.000000
vt 1.000000 1.000000
vn 0.000000 0.000000 1.000000
vn 0.000000 0.000000 1.000000
vn 0.000000 -0.000000 1.000000
vn 0.000000 0.000000 1.000000
vn 0.000000 0.000000 1.000000
vn 0.000000 0.000000 1.000000
vn 0.000000 0.000000 1.000000
vn 0.000000 0.000000 1.000000
vn 0.000000 0.000000 1.000000
vn 0.000000 0.000000 1.000000
vn 0.000000 -0.000000 1.000000
vn 0.000000 -0.000000 1.000000
vn -0.000000 -0.000000 1.000000
vn 0.000000 0.000000 1.000000
vn 0.000000 0.000000 1.000000
vn -0.056668 0.036238 0.997735
vn -0.047123 0.030134 0.998434
vn -0.000000 -0.000000 1.000000
vn 0.066464 0.012567 0.997710
vn 0.064364 0.012169 0.997852
vn -0.083590 0.053454 0.995066
vn -0.151232 0.096710 0.983756
vn -0.000000 0.000000 1.000000
vn 0.082331 0.015567 0.996484
vn 0.124300 0.023502 0.991966
vn 0.000000 -0.000000 -1.000000
vn 0.000000 -0.000000 -1.000000
vn 0.000000 0.000000 -1.000000
vn 0.000000 -0.000000 -1.000000
vn 0.000000 -0.000000 -1.000000
vn 0.000000 -0.000000 -1.000000
vn 0.000000 -0.000000 -1.000000
vn 0.000000 -0.000000 -1.000000
vn 0.000000 -0.000000 -1.000000
vn 0.000000 -0.000000 -1.000000
vn 0.000000 -0.000000 -1.000000
vn 0.000000 0.000000 -1.000000
vn 0.000000 0.000000 -1.000000
vn 0.000000 0.000000 -1.000000
vn 0.000000 0.000000 -1.000000
vn 0.047123 -0.030134 -0.998434
vn 0.056668 -0.036238 -0.997735
vn 0.000000 -0.000000 -1.000000
vn -0.066464 -0.012567 -0.997710
vn -0.064364 -0.012169 -0.997852
vn 0.151232 -0.096710 -0.983756
vn 0.083590 -0.053454 -0.995066
vn 0.000000 -0.000000 -1.000000
vn -0.082331 -0.015567 -0.996484
vn -0.124300 -0.023502 -0.991966
vn 0.838145 -0.545448 0.000000
vn 0.838145 -0.545448 0.000000
vn 0.838145 -0.545448 0.000000
vn 0.838145 -0.545448 0.000000
vn -0.992425 -0.122853 0.000000
vn -0.995423 -0.095566 0.000000
vn -0.995423 -0.095566 0.000000
vn -0.992425 -0.122853 0.000000
vn -0.973689 -0.227880 0.000000
vn -0.973689 -0.227880 0.000000
vn -0.973689 -0.227880 0.000000
vn -0.973689 -0.227880 0.000000
vn 0.970554 -0.240885 0.000000
vn 0.970554 -0.240885 0.000000
vn 0.970554 -0.240885 0.000000
vn 0.970554 -0.240885 0.000000
vn -0.953129 -0.302564 0.000000
vn -0.953129 -0.302564 0.000000
vn -0.953129 -0.302564 0.000000
vn -0.953129 -0.302564 0.000000
vn 0.984843 -0.173447 0.000000
vn 0.979125 -0.203258 0.000000
vn 0.979125 -0.203258 0.000000
vn 0.984843 -0.173447 0.000000
vn -0.984762 -0.173908 0.000000
vn -0.984762 -0.173908 0.000000
vn 0.981323 -0.192368 0.000000
vn 0.981323 -0.192368 0.000000
vn -0.966468 -0.256786 0.000000
vn -0.967888 -0.251381 0.000000
vn 0.969779 -0.243986 0.000000
vn 0.970511 -0.241056 0.000000
vn 0.062742 0.998030 0.000000
vn 0.014463 0.999895 0.000000
vn 0.014463 0.999895 0.000000
vn 0.068816 0.997629 0.000000
vn -0.953293 -0.302048 0.000000
vn -0.953293 -0.302048 0.000000
vn 0.000000 1.000000 0.000000
vn 0.000000 1.000000 0.000000
vn -0.062742 0.998030 0.000000
vn -0.068816 0.997629 0.000000
vn 0.959532 -0.281601 0.000000
vn 0.959532 -0.281601 0.000000
vn -0.014463 0.999895 0.000000
vn -0.014463 0.999895 0.000000
s 1
g pasted__poledevil1 group pasted__rag
usemtl initialShadingGroup
f 54/99/61 55/100/62 56/55/63 57/101/64
f 55/100/62 58/102/65 59/56/66 56/55/63
f 58/102/65 60/103/67 61/57/68 59/56/66
f 60/103/67 62/104/69 63/105/70 61/57/68
f 57/101/64 56/55/63 64/60/71 65/106/72
f 56/55/63 59/56/66 66/61/73 64/60/71
f 59/56/66 61/57/68 67/62/74 66/61/73
f 61/57/68 63/105/70 68/107/75 67/62/74
f 65/106/72 64/60/71 69/65/76 70/108/77
f 64/60/71 66/61/73 71/66/78 69/65/76
f 66/61/73 67/62/74 72/67/79 71/66/78
f 67/62/74 68/107/75 73/109/80 72/67/79
f 70/108/77 69/65/76 74/110/81 75/111/82
f 69/65/76 71/66/78 76/112/83 74/110/81
f 71/66/78 72/67/79 77/113/84 76/112/83
f 72/67/79 73/109/80 78/114/85 77/113/84
s 2
f 29/74/86 34/77/87 35/76/88 30/75/89
f 30/75/89 35/76/88 36/79/90 31/78/91
f 31/78/91 36/79/90 37/81/92 32/80/93
f 32/80/93 37/81/92 38/83/94 33/82/95
f 34/77/87 39/85/96 40/84/97 35/76/88
f 35/76/88 40/84/97 41/86/98 36/79/90
f 36/79/90 41/86/98 42/87/99 37/81/92
f 37/81/92 42/87/99 43/88/100 38/83/94
f 39/85/96 44/90/101 45/89/102 40/84/97
f 40/84/97 45/89/102 46/91/103 41/86/98
f 41/86/98 46/91/103 47/92/104 42/87/99
f 42/87/99 47/92/104 48/93/105 43/88/100
f 44/90/101 49/95/106 50/94/107 45/89/102
f 45/89/102 50/94/107 51/96/108 46/91/103
f 46/91/103 51/96/108 52/97/109 47/92/104
f 47/92/104 52/97/109 53/98/110 48/93/105
s off
f 29/49/111 30/50/112 55/100/113 54/99/114
s 3
f 34/54/115 29/49/116 54/99/117 57/101/118
s off
f 30/50/119 31/51/120 58/102/121 55/100/122
f 31/51/123 32/52/124 60/103/125 58/102/126
f 32/52/127 33/53/128 62/104/129 60/103/130
s 4
f 33/53/131 38/58/132 63/105/133 62/104/134
s 3
f 39/59/135 34/54/115 57/101/118 65/106/136
s 4
f 38/58/132 43/63/137 68/107/138 63/105/133
s 3
f 44/64/139 39/59/135 65/106/136 70/108/140
s 4
f 43/63/137 48/68/141 73/109/142 68/107/138
s 5
f 50/70/143 49/69/144 75/111/145 74/110/146
s 3
f 49/69/147 44/64/139 70/108/140 75/111/148
s 5
f 51/71/149 50/70/143 74/110/146 76/112/150
f 52/72/151 51/71/149 76/112/150 77/113/152
s 4
f 48/68/141 53/73/153 78/114/154 73/109/142
s 5
f 53/73/155 52/72/151 77/113/152 78/114/156
