# This file uses centimeters as units for non-parametric coordinates.

mtllib stairs.mtl
g default
v -38.889920 11.246950 7.655722
v -3.660659 11.246950 7.655722
v -38.889920 14.294760 7.655722
v -3.660659 14.294760 7.655722
v -38.889920 14.294760 -27.573543
v -3.660659 14.294760 -27.573543
v -38.889920 11.246950 -27.573543
v -3.660659 11.246950 -27.573543
v -38.889920 7.987301 -27.573543
v -3.660659 7.987301 -27.573543
v -38.889920 11.246950 9.818389
v -3.660659 11.246950 9.818389
v -38.889920 7.987301 9.818389
v -3.660659 7.987301 9.818389
v -38.889920 5.165856 -27.573543
v -3.660659 5.165856 -27.573543
v -38.889920 7.987301 12.151134
v -3.660659 7.987301 12.151134
v -38.889920 5.165856 12.151134
v -3.660659 5.165856 12.151134
v -38.889920 2.665474 -27.573543
v -3.660659 2.665474 -27.573543
v -38.889920 5.165856 14.399401
v -3.660659 5.165856 14.399401
v -38.889920 2.665474 14.399401
v -3.660659 2.665474 14.399401
v -38.889920 0.251395 -27.573543
v -3.660659 0.251395 -27.573543
v -38.889920 2.665474 16.374089
v -3.660659 2.665474 16.374089
v -38.889920 0.251395 16.374089
v -3.660659 0.251395 16.374089
vt 0.375000 0.000000
vt 0.625000 0.000000
vt 0.375000 0.250000
vt 0.625000 0.250000
vt 0.375000 0.500000
vt 0.625000 0.500000
vt 0.375000 0.750000
vt 0.625000 0.750000
vt 0.375000 1.000000
vt 0.625000 1.000000
vt 0.875000 0.000000
vt 0.875000 0.250000
vt 0.125000 0.000000
vt 0.125000 0.250000
vt 0.375000 0.750000
vt 0.625000 0.750000
vt 0.625000 1.000000
vt 0.375000 1.000000
vt 0.375000 1.000000
vt 0.625000 1.000000
vt 0.375000 0.750000
vt 0.625000 0.750000
vt 0.625000 1.000000
vt 0.375000 1.000000
vt 0.375000 1.000000
vt 0.625000 1.000000
vt 0.375000 0.750000
vt 0.625000 0.750000
vt 0.625000 1.000000
vt 0.375000 1.000000
vt 0.375000 1.000000
vt 0.625000 1.000000
vt 0.375000 0.750000
vt 0.625000 0.750000
vt 0.625000 1.000000
vt 0.375000 1.000000
vt 0.375000 1.000000
vt 0.625000 1.000000
vn 0.000000 0.000000 1.000000
vn 0.000000 0.000000 1.000000
vn 0.000000 0.000000 1.000000
vn 0.000000 0.000000 1.000000
vn 0.000000 1.000000 0.000000
vn 0.000000 1.000000 0.000000
vn 0.000000 1.000000 0.000000
vn 0.000000 1.000000 0.000000
vn 0.000000 0.000000 -1.000000
vn 0.000000 0.000000 -1.000000
vn 0.000000 0.000000 -1.000000
vn 0.000000 0.000000 -1.000000
vn 1.000000 0.000000 0.000000
vn 1.000000 0.000000 0.000000
vn 1.000000 0.000000 0.000000
vn 1.000000 0.000000 0.000000
vn -1.000000 0.000000 0.000000
vn -1.000000 0.000000 0.000000
vn -1.000000 0.000000 0.000000
vn -1.000000 0.000000 0.000000
vn 0.000000 0.000000 -1.000000
vn 0.000000 0.000000 -1.000000
vn 1.000000 0.000000 0.000000
vn 1.000000 0.000000 0.000000
vn 1.000000 0.000000 0.000000
vn 0.000000 0.000000 1.000000
vn 0.000000 0.000000 1.000000
vn 0.000000 0.000000 1.000000
vn 0.000000 0.000000 1.000000
vn 0.000000 1.000000 0.000000
vn 0.000000 1.000000 0.000000
vn 0.000000 1.000000 0.000000
vn 0.000000 1.000000 0.000000
vn -1.000000 0.000000 0.000000
vn -1.000000 0.000000 0.000000
vn -1.000000 0.000000 0.000000
vn 0.000000 0.000000 -1.000000
vn 0.000000 0.000000 -1.000000
vn 1.000000 0.000000 0.000000
vn 1.000000 0.000000 0.000000
vn 1.000000 0.000000 0.000000
vn 0.000000 0.000000 1.000000
vn 0.000000 0.000000 1.000000
vn 0.000000 0.000000 1.000000
vn 0.000000 0.000000 1.000000
vn 0.000000 1.000000 0.000000
vn 0.000000 1.000000 0.000000
vn 0.000000 1.000000 0.000000
vn 0.000000 1.000000 0.000000
vn -1.000000 0.000000 0.000000
vn -1.000000 0.000000 0.000000
vn -1.000000 0.000000 0.000000
vn 0.000000 0.000000 -1.000000
vn 0.000000 0.000000 -1.000000
vn 1.000000 0.000000 0.000000
vn 1.000000 0.000001 0.000000
vn 1.000000 0.000000 0.000000
vn 0.000000 0.000000 1.000000
vn 0.000000 0.000000 1.000000
vn 0.000000 0.000000 1.000000
vn 0.000000 0.000000 1.000000
vn 0.000000 1.000000 0.000000
vn 0.000000 1.000000 0.000000
vn 0.000000 1.000000 0.000000
vn 0.000000 1.000000 0.000000
vn -1.000000 0.000000 0.000000
vn -1.000000 0.000000 0.000000
vn -1.000000 0.000000 0.000000
vn 0.000000 0.000000 -1.000000
vn 0.000000 0.000000 -1.000000
vn 1.000000 0.000000 0.000000
vn 1.000000 0.000000 0.000000
vn 1.000000 0.000000 0.000000
vn 0.000000 0.000000 1.000000
vn 0.000000 0.000000 1.000000
vn 0.000000 0.000000 1.000000
vn 0.000000 0.000000 1.000000
vn 0.000000 1.000000 0.000000
vn 0.000000 1.000000 0.000000
vn 0.000000 1.000000 0.000000
vn 0.000000 1.000000 0.000000
vn -1.000000 0.000000 0.000000
vn -1.000000 0.000000 0.000000
vn -1.000000 0.000000 0.000000
vn 0.000000 -1.000000 0.000000
vn 0.000000 -1.000000 0.000000
vn 0.000000 -1.000000 0.000000
vn 0.000000 -1.000000 0.000000
s off
g pasted__stairs group
usemtl initialShadingGroup
f 1/1/1 2/2/2 4/4/3 3/3/4
f 3/3/5 4/4/6 6/6/7 5/5/8
s 1
f 5/5/9 6/6/10 8/8/11 7/7/12
s 2
f 2/2/13 8/11/14 6/12/15 4/4/16
s 3
f 7/13/17 1/1/18 3/3/19 5/14/20
s 1
f 7/7/12 8/8/11 10/16/21 9/15/22
s 2
f 10/16/23 8/8/14 2/10/13 12/17/24 14/20/25
s off
f 12/17/26 11/18/27 13/19/28 14/20/29
f 2/10/30 1/9/31 11/18/32 12/17/33
s 3
f 13/19/34 11/18/35 1/9/18 7/7/17 9/15/36
s 1
f 9/15/22 10/16/21 16/22/37 15/21/38
s 2
f 16/22/39 10/16/23 14/20/25 18/23/40 20/26/41
s off
f 18/23/42 17/24/43 19/25/44 20/26/45
f 14/20/46 13/19/47 17/24/48 18/23/49
s 3
f 19/25/50 17/24/51 13/19/34 9/15/36 15/21/52
s 1
f 15/21/38 16/22/37 22/28/53 21/27/54
s 2
f 22/28/55 16/22/39 20/26/41 24/29/56 26/32/57
s off
f 24/29/58 23/30/59 25/31/60 26/32/61
f 20/26/62 19/25/63 23/30/64 24/29/65
s 3
f 25/31/66 23/30/67 19/25/50 15/21/52 21/27/68
s 1
f 21/27/54 22/28/53 28/34/69 27/33/70
s 2
f 28/34/71 22/28/55 26/32/57 30/35/72 32/38/73
s off
f 30/35/74 29/36/75 31/37/76 32/38/77
f 26/32/78 25/31/79 29/36/80 30/35/81
s 3
f 27/33/82 31/37/83 29/36/84 25/31/66 21/27/68
s off
f 28/34/85 32/38/86 31/37/87 27/33/88
